<svg width="618" height="220" viewBox="0 0 618 347" fill="none" xmlns="http://www.w3.org/2000/svg">
<g clip-path="url(#clip0)" filter="url(#filter0_d)">
<path d="M329.38 0C330.965 0.505475 332.628 0.722246 334.29 0.639999C345.2 0.889999 356.11 0.979995 366.98 2.00999C376.08 2.86999 385.2 3.46001 394.3 4.46001C401.09 5.22001 407.88 6.05 414.66 6.83C421.92 7.67 429.12 8.93001 436.33 10.1C442.75 11.14 449.16 12.25 455.56 13.43C460.56 14.35 465.56 15.37 470.47 16.43C475.38 17.49 480.2 18.7 485.04 19.91C491.72 21.58 498.42 23.14 505.04 25.05C514.38 27.75 523.73 30.5 532.93 33.64C543.78 37.34 554.5 41.44 565.02 46.04C579.537 52.3245 593.589 59.633 607.07 67.91C608.669 68.9224 610.215 70.0172 611.7 71.19C605.31 68.05 598.95 64.83 592.51 61.78C581.91 56.78 571.03 52.51 560.03 48.47C550.03 44.79 539.85 41.47 529.63 38.47C520.83 35.85 511.96 33.47 502.98 31.47C494.98 29.68 486.98 27.61 478.9 26.01C469.64 24.18 460.38 22.33 451.02 20.96C443.72 19.9 436.45 18.62 429.14 17.6C422.61 16.69 416.05 15.96 409.49 15.25C401.27 14.3567 393.047 13.5233 384.82 12.75C380.15 12.3 375.47 11.69 370.82 11.61C361.9 11.47 353.01 10.73 344.11 10.3C326.04 9.44 307.97 9.39001 289.9 9.71001C272.56 10.02 255.23 10.93 237.9 12.25C225.773 13.1767 213.663 14.3233 201.57 15.69C192.73 16.69 183.91 17.85 175.12 19.24C166.66 20.5733 158.213 22.02 149.78 23.58C141.2 25.17 132.66 26.92 124.14 28.75C117.02 30.27 110.01 32.26 102.93 33.97C94.38 36.04 85.93 38.52 77.56 41.12C70.31 43.37 63.14 45.85 55.99 48.43C43.9989 52.6862 32.2305 57.5458 20.73 62.99C15.13 65.68 9.6 68.51 4 71.21C11.43 65.83 19.49 61.51 27.56 57.21C37.8646 51.7934 48.4346 46.8972 59.23 42.54C69.23 38.45 79.44 34.69 89.8 31.54C97.8 29.06 105.8 26.45 113.86 24.24C122.09 22 130.36 19.85 138.72 18.12C145.47 16.72 152.17 15.05 158.93 13.73C165.08 12.52 171.29 11.63 177.47 10.55C183.88 9.43 190.3 8.36 196.77 7.55C202.92 6.8 209.03 5.70001 215.19 5.07001C226.19 3.94001 237.19 3.01001 248.19 2.07001C259.54 1.07001 270.93 0.940008 282.31 0.680008C286.52 0.580008 290.73 0.260003 294.94 0.0500031L329.38 0Z" fill="#E3B13C"/>
<path d="M339.23 135.38C343.905 136.883 348.498 138.628 352.99 140.61C364.84 146.3 370.28 157.95 369.34 171.15C368.21 186.99 356.8 198.25 340.62 201.95C335.735 203.062 330.74 203.618 325.73 203.61C307.957 203.61 290.19 203.61 272.43 203.61C271.35 203.61 270.05 204.12 270.02 202.04C269.99 199.96 271.13 200.27 272.3 200.21C275.24 200.04 278.2 200.05 280.77 198.28C283.77 196.22 284.61 193.13 284.77 189.78C284.93 186.92 284.99 184.05 284.99 181.19C284.99 152.87 284.99 124.537 284.99 96.19C285.077 93.0087 284.913 89.8256 284.5 86.67C283.81 82.43 281.37 79.77 277.16 78.98C275.358 78.6469 273.532 78.453 271.7 78.4C270.53 78.35 270.03 78.11 270.03 76.8C270.03 75.49 270.53 75.06 271.85 75.07C282.92 75.07 294 75.07 305.07 75.07C314.39 75.13 323.71 74.74 333.07 75.45C343.88 76.27 353.22 79.69 359.39 89.37C366.55 100.58 366.39 114.74 358.63 124.16C354.16 129.6 347.92 132.23 341.53 134.57C340.87 134.84 340.3 135.02 339.23 135.38ZM309.87 164.69C309.87 171.04 309.87 177.4 309.87 183.75C309.85 185.577 309.94 187.404 310.14 189.22C310.77 193.94 313.59 196.48 318.35 196.4C326.98 196.25 333.58 192.4 337.29 184.62C342.55 173.62 341.95 162.41 336.82 151.5C334.1 145.73 329.2 142.5 322.96 141.31C319.286 140.677 315.568 140.343 311.84 140.31C310.24 140.31 309.84 140.77 309.84 142.31C309.94 149.75 309.87 157.22 309.87 164.69ZM309.87 107.38C309.87 115.17 309.87 122.96 309.87 130.75C309.87 132.37 310.24 133.08 311.99 132.87C314.27 132.59 316.59 132.61 318.87 132.27C327.16 131.03 333.17 126.74 336.05 118.72C338.571 111.623 338.694 103.894 336.4 96.72C334.22 89.62 329.4 84.93 321.92 83.32C318.635 82.7249 315.315 82.3441 311.98 82.18C310.29 82.05 309.84 82.61 309.86 84.28C309.96 91.96 309.87 99.67 309.87 107.38Z" fill="#383637"/>
<path d="M451.4 182.21C451.4 175.05 451.4 167.89 451.4 160.73C451.4 159.79 450.51 158.21 452.65 158.05C454.57 157.91 454.34 159.31 454.56 160.4C456.39 169.34 459.08 177.96 464.56 185.4C468.72 191.08 473.76 195.79 480.49 198.27C489.09 201.45 499.7 200.34 505.49 191.36C510.27 183.96 509.44 173.93 503.11 166.61C498.28 161.02 491.91 157.51 485.72 153.79C479.31 149.93 472.9 146.07 467.11 141.3C452.46 129.23 447.56 111.3 454.11 93.84C461.42 74.61 482.77 66.61 500.95 76.25C503.558 77.7757 506.256 79.1416 509.03 80.34C512.46 81.64 514.52 80.75 515.71 77.28C516.157 76.087 516.491 74.855 516.71 73.6C516.87 72.54 517.25 72.1 518.38 72.13C519.72 72.13 519.38 73.13 519.38 73.81C519.647 87.01 519.903 100.213 520.15 113.42C520.15 114.33 520.26 115.18 518.87 115.09C517.79 115.03 516.94 115.09 516.7 113.62C515.863 107.379 513.79 101.369 510.6 95.94C505.6 87.82 499.19 81.41 489.35 79.6C481.73 78.19 474.74 81.27 471.01 87.45C467.19 93.78 467.76 101.38 472.46 107.52C476.95 113.36 483.25 116.85 489.36 120.52C497.86 125.68 506.54 130.52 513.9 137.37C532.65 154.73 531.07 185.14 510.42 200.08C500.42 207.32 489.21 207.97 477.63 204.52C474.312 203.406 471.094 202.014 468.01 200.36C462.01 197.36 457.75 198.79 454.93 204.81C454.33 206.1 453.66 206.76 452.27 206.47C450.88 206.18 451.43 204.93 451.43 204.12C451.37 196.85 451.4 189.53 451.4 182.21Z" fill="#383637"/>
<path d="M11.59 300.81C12.91 298.58 15.26 297.66 17.32 296.47C30.4434 288.861 44.0565 282.129 58.07 276.32C67.8567 272.32 77.7867 268.653 87.86 265.32C96.42 262.5 105.02 259.8 113.68 257.32C121.75 254.98 129.97 253.16 138.14 251.2C144.61 249.65 151.09 248.12 157.6 246.79C163.51 245.58 169.46 244.6 175.41 243.61C182.77 242.39 190.14 241.21 197.52 240.13C203.34 239.28 209.18 238.55 215.02 237.9C223.24 236.99 231.46 236.14 239.69 235.4C245.79 234.84 251.9 234.4 258.01 234.06C269.85 233.33 281.7 232.98 293.55 232.56C303.67 232.187 313.78 232.127 323.88 232.38C338.27 232.74 352.67 233.28 367.03 234.27C379.15 235.11 391.257 236.243 403.35 237.67C413.69 238.9 424.02 240.22 434.35 241.8C442.58 243.05 450.77 244.59 458.95 246.17C465.72 247.48 472.48 248.86 479.2 250.39C487.47 252.27 495.67 254.49 503.89 256.58C510.89 258.35 517.75 260.52 524.62 262.67C539.708 267.393 554.533 272.921 569.03 279.23C580.592 284.316 591.887 289.99 602.87 296.23C606.641 298.375 610.245 300.802 613.65 303.49C610.12 301.67 606.65 299.81 603.06 298.03C592.31 292.64 581.28 287.92 570.06 283.63C559.14 279.443 548.077 275.67 536.87 272.31C525.73 268.95 514.48 265.99 503.15 263.31C492.877 260.89 482.57 258.67 472.23 256.65C462.1 254.65 451.93 252.86 441.73 251.37C430.26 249.7 418.73 248.37 407.2 247.04C394.2 245.6 381.2 244.59 368.2 243.69C356.14 242.84 344.04 242.5 331.94 242.27C319.587 242.037 307.253 241.987 294.94 242.12C285.31 242.23 275.67 242.47 266.06 242.97C253.11 243.65 240.15 244.3 227.26 245.58C217.46 246.58 207.66 247.58 197.88 248.86C189.88 249.92 181.88 251.04 173.81 252.15C167.29 253.06 160.81 254.36 154.35 255.57C147.17 256.9 139.99 258.22 132.85 259.73C126.65 261.03 120.49 262.54 114.34 264.05C109.113 265.343 103.9 266.697 98.7 268.11C92.7 269.74 86.82 271.41 80.92 273.2C71.84 275.95 62.92 279.07 54 282.36C40.636 287.25 27.5732 292.926 14.88 299.36C13.78 299.91 12.67 300.34 11.59 300.81Z" fill="#E3B13C"/>
<path d="M141.35 203.61C126.143 203.61 110.93 203.61 95.71 203.61C94.37 203.61 93.42 203.61 93.59 201.75C93.7 200.59 94.06 200.27 95.16 200.29C97.3855 200.4 99.6152 200.188 101.78 199.66C103.383 199.293 104.84 198.454 105.961 197.251C107.083 196.047 107.817 194.535 108.07 192.91C108.671 189.299 108.909 185.638 108.78 181.98C108.82 153.667 108.82 125.357 108.78 97.05C108.78 94.35 108.62 91.64 108.5 88.94C108.18 82.17 104.69 78.7 97.87 78.37C97.074 78.325 96.276 78.325 95.48 78.37C94.34 78.44 93.48 78.37 93.58 76.81C93.58 75.41 94.09 75.09 95.4 75.09C113.4 75.13 131.4 75.13 149.4 75.09C150.85 75.09 151.06 75.67 151.1 76.93C151.1 78.39 150.37 78.39 149.33 78.37C147.105 78.2546 144.873 78.3955 142.68 78.79C138.45 79.67 135.73 82.35 135.15 86.64C134.83 89.1638 134.68 91.7061 134.7 94.25C134.7 123.363 134.7 152.47 134.7 181.57C134.683 184.193 134.827 186.815 135.13 189.42C135.64 193.49 137.42 195.66 141.41 196.03C148.615 196.83 155.885 196.83 163.09 196.03C173.19 194.72 178.91 187.94 182.96 179.35C185.688 173.259 187.802 166.911 189.27 160.4C189.54 159.32 189.71 158.54 191.17 158.53C192.63 158.52 193.17 158.94 193.06 160.53C191.727 174.377 190.463 188.227 189.27 202.08C189.12 203.84 188.08 203.61 186.98 203.61H141.35Z" fill="#383637"/>
<path d="M253.36 301.78C255.84 299.41 257.54 296.53 260.91 295.55C262.305 295.093 263.814 295.132 265.184 295.658C266.554 296.184 267.7 297.167 268.43 298.44C270.43 301.52 270.25 304.95 270.33 308.32C270.45 313.01 270.33 317.71 270.33 322.4C270.33 324.78 270.15 327.4 273.53 327.84C273.733 327.87 273.916 327.977 274.041 328.14C274.166 328.302 274.223 328.506 274.2 328.71C274.2 329.39 273.61 329.37 273.15 329.37C269.33 329.37 265.51 329.37 261.68 329.37C261.3 329.37 260.82 329.37 260.68 328.86C260.54 328.35 261.07 328 261.54 327.95C265.07 327.62 265.23 325.14 265.2 322.43C265.14 317.18 265.2 311.93 265.2 306.68C265.2 303.99 264.97 301.08 262.09 300C259.21 298.92 256.93 300.63 254.96 302.66C254.543 303.015 254.207 303.457 253.976 303.954C253.744 304.451 253.623 304.992 253.62 305.54C253.707 311.74 253.723 317.943 253.67 324.15C253.67 326.21 254.25 327.55 256.53 327.67C257.19 327.67 257.91 327.89 257.82 328.72C257.73 329.55 256.88 329.38 256.29 329.38C252.71 329.38 249.12 329.38 245.54 329.38C245.01 329.38 244.1 329.71 244.11 328.66C244.11 327.83 244.81 327.66 245.47 327.66C247.56 327.66 248.2 326.34 248.19 324.53C248.19 317.93 248.28 311.32 248.08 304.73C247.94 300.01 244.43 298.34 240.34 300.78C237.84 302.27 236.44 304.18 236.59 307.33C236.86 312.88 236.79 318.45 236.85 324.01C236.85 326.16 237.46 327.81 240.07 327.74C240.67 327.74 241.21 327.88 241.19 328.65C241.17 329.42 240.49 329.39 239.97 329.39C236.143 329.39 232.32 329.39 228.5 329.39C228.05 329.39 227.43 329.39 227.42 328.78C227.419 328.53 227.512 328.288 227.68 328.103C227.849 327.918 228.081 327.803 228.33 327.78C231.48 327.71 231.57 325.24 231.62 323.2C231.78 316.92 231.78 310.637 231.62 304.35C231.56 301.25 230.91 300.76 228.09 300.59C227.67 300.59 227.29 300.59 227.18 300.04C227.139 299.93 227.121 299.814 227.126 299.697C227.131 299.58 227.16 299.466 227.21 299.36C227.26 299.255 227.332 299.161 227.419 299.083C227.507 299.006 227.609 298.947 227.72 298.91C230.21 297.71 232.66 296.44 235.16 295.28C236.06 294.86 236.74 295.17 236.74 296.28C236.67 296.83 236.64 297.385 236.65 297.94C236.79 298.94 235.98 300.51 237.19 300.94C238.05 301.24 238.75 299.83 239.37 299.02C240.248 297.892 241.338 296.947 242.58 296.24C246.37 293.98 250.08 295.13 252.14 299.1C252.61 299.92 252.87 300.73 253.36 301.78Z" fill="#E3B13C"/>
<path d="M427.43 321.83C427.48 325.04 423.69 328.95 420.93 328.74C420.333 328.739 419.751 328.553 419.263 328.207C418.776 327.861 418.408 327.373 418.21 326.81C417.21 324.13 417.07 324.11 414.93 326.11C412.79 328.11 410.7 329.26 407.87 328.77C403.72 328.04 401 322.52 402.45 317.94C403.436 315.068 405.415 312.643 408.03 311.1C410.57 309.485 413.247 308.097 416.03 306.95C416.528 306.822 416.961 306.514 417.245 306.086C417.53 305.657 417.646 305.139 417.57 304.63C417.44 303.21 417.52 301.75 417.28 300.35C417.092 299.154 416.442 298.08 415.469 297.36C414.496 296.639 413.279 296.33 412.08 296.5C409.87 296.66 408.67 298.27 408.64 301.08C408.731 302.026 408.674 302.981 408.47 303.91C407.99 305.25 406.98 306.29 405.37 305.82C403.5 305.27 403.15 303.63 403.37 301.99C403.567 300.156 404.34 298.432 405.578 297.065C406.816 295.698 408.455 294.758 410.26 294.38C412.525 293.85 414.884 293.87 417.14 294.44C420.86 295.44 422.84 298.27 422.93 302.7C423.05 308.7 422.93 314.79 423.05 320.83C423.05 321.83 422.51 323.22 423.89 323.78C425.27 324.34 425.89 323.08 426.7 322.42C426.81 322.28 427 322.15 427.43 321.83ZM417.72 315.21V310.44C417.72 309.08 417.04 308.75 415.89 309.36C413.863 310.256 411.958 311.405 410.22 312.78C409.001 313.743 408.108 315.059 407.665 316.548C407.221 318.037 407.247 319.627 407.74 321.1C408.64 324.19 411.05 325.26 413.93 323.85C416.46 322.62 418.28 321.01 417.74 317.85C417.652 316.972 417.645 316.089 417.72 315.21Z" fill="#E3B13C"/>
<path d="M366.87 309.81C366.94 315.58 365.87 319.94 363.16 323.72C357.75 331.31 348.7 331.2 343.4 323.58C338.67 316.8 339.12 305.24 344.4 298.82C350.33 291.56 360.33 292.82 364.67 301.32C366.092 303.925 366.848 306.842 366.87 309.81ZM361.07 313.62C361.19 308.46 360.62 303.46 357.39 299.16C354.49 295.32 349.28 295.85 347.5 300.29C344.19 308.51 345.32 316.44 349.81 323.92C350.357 324.911 351.213 325.695 352.248 326.152C353.283 326.609 354.44 326.713 355.54 326.45C357.86 325.95 359.24 324.33 360.09 322.08C361.09 319.31 360.96 316.47 361.03 313.61L361.07 313.62Z" fill="#E3B13C"/>
<path d="M217.04 316.46C218.15 318.89 217.2 320.66 216.43 322.28C213.83 327.75 210.98 330.98 204.94 330.23C200.17 329.63 197.14 326.23 195.84 322.11C193.57 314.95 193.33 307.6 197.45 300.76C199.73 296.98 204.8 294.53 208.52 295.26C214.52 296.44 216.78 301.05 217.52 305.08C217.62 305.62 217.52 306.2 217.7 306.73C218.12 308.41 217.33 308.81 215.82 308.79C211.04 308.79 206.27 308.79 201.49 308.79C198.78 308.79 198.49 309.2 198.9 311.9C199.4 315.29 200.24 318.48 202.53 321.23C206.16 325.61 212.39 325.23 215.22 320.23C215.8 319.17 216.29 318.01 217.04 316.46ZM204.87 306.61H209.87C210.66 306.61 211.21 306.46 211.34 305.48C211.407 303.933 211.003 302.403 210.182 301.09C209.361 299.778 208.16 298.746 206.74 298.13C204.58 297.4 201.74 298.84 200.22 301.34C199.591 302.525 199.149 303.8 198.91 305.12C198.66 306.12 199.05 306.63 200.12 306.61C201.71 306.61 203.29 306.61 204.87 306.61Z" fill="#E3B13C"/>
<path d="M454.54 299.84C454.54 301.11 454.54 302.38 454.54 303.65C454.54 304.25 454.79 305.19 454.01 305.28C453.23 305.37 452.94 304.38 452.9 303.71C452.709 302.457 452.296 301.248 451.68 300.14C451.229 299.021 450.447 298.067 449.439 297.404C448.432 296.741 447.246 296.401 446.04 296.43C445.118 296.371 444.2 296.6 443.413 297.086C442.627 297.571 442.011 298.289 441.65 299.14C440.59 301.43 442.12 304.86 444.96 306.51C447.22 307.81 449.51 309.08 451.73 310.45C453.863 311.783 455.443 313.842 456.178 316.247C456.913 318.652 456.754 321.242 455.73 323.54C453.5 328.34 448.73 330.28 443.4 328.73C441.98 328.31 440.49 327.51 438.85 328.42C437.94 328.93 437.58 328.26 437.58 327.42C437.58 324.42 437.58 321.42 437.58 318.36C437.58 317.81 437.58 317.14 438.4 317.16C439.22 317.18 439.15 317.88 439.22 318.4C439.587 321.094 440.95 323.552 443.04 325.29C445.42 327.36 448.89 327.43 450.75 325.46C452.61 323.49 452.31 319.95 450.23 317.74C447.76 315.09 444.35 313.74 441.52 311.63C440.287 310.723 439.279 309.545 438.573 308.187C437.867 306.828 437.482 305.326 437.449 303.796C437.415 302.266 437.733 300.748 438.378 299.36C439.023 297.972 439.978 296.751 441.17 295.79C443.6 293.79 446.23 293.85 449.04 294.62C450.42 295 451.75 295.97 453.21 294.51C453.91 293.8 454.51 294.41 454.53 295.34C454.53 296.85 454.53 298.34 454.53 299.88L454.54 299.84Z" fill="#E3B13C"/>
<path d="M164 317.7C166.25 319.25 165.72 321.39 166.65 322.94C168 325.18 169.39 327.1 172.11 327.79C173.014 328.108 173.995 328.137 174.917 327.872C175.838 327.606 176.653 327.061 177.25 326.31C177.91 325.507 178.316 324.525 178.416 323.49C178.516 322.456 178.305 321.414 177.81 320.5C176.58 317.9 173.98 316.83 171.81 315.28C170.46 314.28 169.12 313.33 167.69 312.51C162.56 309.61 163.04 300.91 166.59 297.66C168.97 295.48 171.59 294.59 174.85 295.6C176.36 296.07 177.99 297.32 179.68 295.65C180.49 294.85 180.87 295.9 180.88 296.41C180.96 299.41 180.88 302.41 180.88 305.46C180.88 305.87 180.74 306.29 180.25 306.35C179.46 306.45 179.35 305.81 179.25 305.27C178.971 303.473 178.287 301.764 177.25 300.27C176.576 299.184 175.554 298.359 174.35 297.93C171.7 297.1 169.2 297.85 168.03 299.84C167.03 301.54 167.63 304.37 169.38 306.13C171.38 308.13 173.99 309.13 176.38 310.58C179.91 312.73 182.72 315.48 182.87 319.87C183.14 327.24 176.59 332.1 169.56 329.87C168.4 329.5 167.17 328.98 166.07 329.33C164.07 329.96 163.85 329.12 163.9 327.46C164.06 324.38 164 321.3 164 317.7Z" fill="#E3B13C"/>
<path d="M325.38 308.42C325.38 313.98 325.54 319.55 325.32 325.1C325.17 328.91 324.32 332.61 321.67 335.66C319.2 338.53 316.04 339.34 312.46 338.84C311.706 338.737 310.997 338.424 310.412 337.938C309.827 337.452 309.39 336.812 309.15 336.09C308.899 335.497 308.855 334.837 309.026 334.217C309.196 333.596 309.571 333.051 310.09 332.67C310.547 332.343 311.1 332.175 311.662 332.193C312.224 332.211 312.765 332.414 313.2 332.77C314.006 333.4 314.759 334.096 315.45 334.85C317.37 336.62 319.36 335.85 319.82 333.29C319.962 332.427 320.029 331.554 320.02 330.68C320.02 319.72 320.02 308.757 320.02 297.79C320.02 295.66 320.09 293.4 316.8 294.07C316.703 294.099 316.601 294.106 316.501 294.089C316.402 294.072 316.307 294.033 316.225 293.974C316.143 293.915 316.075 293.838 316.028 293.749C315.98 293.66 315.953 293.561 315.95 293.46C315.924 293.262 315.958 293.062 316.047 292.884C316.136 292.705 316.277 292.558 316.45 292.46C318.73 291.387 321.013 290.33 323.3 289.29C324.83 288.59 325.47 289.05 325.46 290.78C325.4 296.66 325.46 302.54 325.46 308.42H325.38Z" fill="#E3B13C"/>
<path d="M387.6 309.61C387.6 313.89 387.6 318.18 387.6 322.46C387.6 324.57 387.99 326.46 390.66 326.7C391.16 326.7 391.66 326.93 391.58 327.54C391.5 328.15 391.02 328.27 390.58 328.28C386.847 328.28 383.11 328.28 379.37 328.28C378.9 328.28 378.37 328.22 378.3 327.59C378.19 326.77 378.8 326.67 379.36 326.66C381.47 326.66 382.08 325.19 382.13 323.49C382.34 316.12 382.42 308.74 382.06 301.36C381.97 299.54 381.06 298.75 379.22 299.36C378.69 299.53 378.31 299.54 378.09 298.95C377.87 298.36 378.09 298.12 378.63 297.86C381.02 296.67 383.34 295.32 385.78 294.27C387.31 293.61 387.64 294.71 387.64 296.04C387.57 300.61 387.59 305.09 387.6 309.61Z" fill="#E3B13C"/>
<path d="M293.32 310.42C293.32 314.71 293.27 319 293.32 323.29C293.32 325.41 293.63 327.5 296.44 327.83C296.96 327.89 297.57 328.27 297.44 328.95C297.31 329.63 296.65 329.38 296.21 329.38C292.63 329.38 289.05 329.38 285.47 329.38C284.96 329.38 284.22 329.53 284.14 328.76C284.06 327.99 284.81 327.89 285.32 327.84C287.82 327.6 288.12 325.62 288.15 323.84C288.27 317.093 288.27 310.343 288.15 303.59C288.15 301.76 287.64 299.75 284.87 300.53C284.755 300.569 284.634 300.583 284.513 300.574C284.392 300.564 284.275 300.531 284.167 300.475C284.06 300.419 283.965 300.342 283.888 300.248C283.811 300.154 283.754 300.046 283.72 299.93C283.48 299.34 283.83 299.11 284.32 298.87C286.72 297.71 289.08 296.45 291.51 295.35C293.19 294.6 293.34 295.77 293.34 297.04C293.34 301.48 293.34 305.927 293.34 310.38L293.32 310.42Z" fill="#E3B13C"/>
<path d="M293.87 281.61C293.87 283.61 292.43 285.43 290.78 285.46C289.13 285.49 287.44 283.57 287.43 281.81C287.42 280.05 289.01 278.04 290.6 277.97C292.19 277.9 293.87 279.66 293.87 281.61Z" fill="#E3B13C"/>
<path d="M384.87 276.92C386.76 276.92 387.94 278.37 387.93 280.65C387.93 282.59 386.48 284.36 384.93 284.32C383.38 284.28 381.88 282.48 381.93 280.41C381.95 278.09 382.95 276.92 384.87 276.92Z" fill="#E3B13C"/>
<path d="M325.62 275.38C325.62 277.73 324.69 278.91 322.81 278.96C320.93 279.01 319.64 277.66 319.65 275.41C319.65 273.41 321.14 271.48 322.65 271.49C324.16 271.5 325.62 273.27 325.62 275.38Z" fill="#E3B13C"/>
</g>
<defs>
<filter id="filter0_d" x="0" y="0" width="617.6" height="346.98" filterUnits="userSpaceOnUse" color-interpolation-filters="sRGB">
<feFlood flood-opacity="0" result="BackgroundImageFix"/>
<feColorMatrix in="SourceAlpha" type="matrix" values="0 0 0 0 0 0 0 0 0 0 0 0 0 0 0 0 0 0 127 0"/>
<feOffset dy="4"/>
<feGaussianBlur stdDeviation="2"/>
<feColorMatrix type="matrix" values="0 0 0 0 0 0 0 0 0 0 0 0 0 0 0 0 0 0 0.25 0"/>
<feBlend mode="normal" in2="BackgroundImageFix" result="effect1_dropShadow"/>
<feBlend mode="normal" in="SourceGraphic" in2="effect1_dropShadow" result="shape"/>
</filter>
<clipPath id="clip0">
<rect width="609.6" height="338.98" fill="white" transform="translate(4)"/>
</clipPath>
</defs>
</svg>
