<svg id="Camada_1" data-name="Camada 1" xmlns="http://www.w3.org/2000/svg" viewBox="0 0 384 384"><defs><style>.cls-1{fill:#fefefe;}.cls-2{fill:#222;}.cls-3{fill:#fdfdfd;}.cls-4{fill:#151515;}.cls-5{fill:#141414;}.cls-6{fill:#101010;}.cls-7{fill:#181818;}.cls-8{fill:#111;}.cls-9{fill:#121212;}.cls-10{fill:#0d0d0d;}.cls-11{fill:#131313;}.cls-12{fill:#0b0b0b;}.cls-13{fill:#0c0c0c;}.cls-14{fill:#070707;}.cls-15{fill:#060606;}.cls-16{fill:#080808;}.cls-17{fill:#0f0f0f;}.cls-18{fill:#010101;}</style></defs><title>caixa-eletronico</title><path class="cls-1" d="M353.08,169.57q86.52,0,173.05-.09c2.84,0,3.2.76,3.2,3.32q-.12,152.08-.07,304.16c-2-.25-1.94-2.06-2.37-3.36-3.93-11.59-12-18.11-24.07-19.54-3.47-.41-3.87-2.5-3.88-5.21,0-10.5.1-21,0-31.48-.12-9.11.52-18.22-.62-27.32-3.44-27.53-18-46.79-43.14-58.16-9.76-4.42-9.48-1.43-9.45-14.25q0-12,0-24a16.55,16.55,0,0,0-.26-4.1c-.72-2.83-2.16-3.43-4.64-2a7.8,7.8,0,0,0-1.52,1.09c-2.29,2.22-4.66,2.26-6.93.09-2.68-2.55-5.19-2.5-7.85,0-2.29,2.17-4.67,2.09-6.94-.11-2.53-2.46-5-2.4-7.54,0-2.29,2.18-4.66,2.2-7,.07-2.51-2.33-5-2.6-7.56-.14-2.38,2.26-4.76,2.24-7.29,0-1.24-1.07-2.65-2.66-4.61-1.56-1.79,1-1.66,3-1.67,4.69-.05,9.5,0,19,0,28.48,0,5.74-.57,6.32-6.14,6.33q-33.93,0-67.84,0c-5.43,0-6.13-.68-6.14-6q-.07-20.24,0-40.47c0-5.29.69-5.92,6.18-5.94,13.37,0,26.74-.31,40.1.09,10.08.31,18.56-7.22,18.32-18.11-.49-22.35-.22-44.72-.11-67.08,0-8.25-3.15-14.2-10.93-17.44C354.37,171.26,353.05,171.1,353.08,169.57Z" transform="translate(-145.33 -169.48)"/><path d="M353.08,169.57c2.76,1.26,5.75,2.05,8.11,4.14,3.93,3.5,6.23,7.76,6.24,13.08,0,23.86.1,47.72,0,71.57-.06,9.62-7.66,16.9-17.34,17-14.61.08-29.23.09-43.84-.05-2.73,0-3.56.54-3.53,3.43q.26,21.74,0,43.47c0,2.67.75,3.28,3.33,3.27q35.79-.15,71.58,0c2.89,0,3.51-.8,3.47-3.55-.17-10.49-.07-21-.07-31.47,0-1.89-.11-3.76,1.95-4.87s3.69.15,4.92,1.48c2.72,2.94,5.17,3,7.85,0,2.32-2.64,4.81-2.32,7,.15,2.45,2.72,4.72,3.1,7.27.12s5.45-2.43,7.9.3c2.22,2.47,4.2,2.4,6.36,0,2.68-3,5.44-3.12,8.22-.07,2.06,2.26,4.17,2.91,6.35.12a2.28,2.28,0,0,1,.59-.46c1.48-1,2.67-2.75,4.92-1.74s2.21,3.07,2.21,5.09c0,11.25.06,22.49-.06,33.73,0,2.46.51,3.6,3.09,4.44,30.8,10.12,50.21,37.06,50.3,69.59.05,17,.07,34-.05,51,0,2.61.43,3.6,3.37,3.76,12,.68,22.55,10,25.3,22,.16.67-.16,1.55.75,1.93v52.48c-1.09,11.72-11.26,23.12-24.74,24h-2.25c-1.28-.72-2.69-.36-4-.36q-161.28,0-322.56,0c-1.34,0-2.75-.36-4,.36H169.4c-13.37-2.2-21.27-10-24-23.24v-54c2.38-14.38,11.57-21.74,25.27-24.27,2.54-.47,2.87-1.9,2.88-3.94V425.52q0-13.49,0-27c.07-38.17,26.94-68.84,64.71-73.88,7.26-1,7.26-1,7.26-8.35,0-11.74,0-23.48,0-35.22,0-4.37-.34-4.7-4.69-4.71-13.24,0-26.49-.36-39.71.09a19.44,19.44,0,0,1-20.22-20.08c.53-23,.22-46,.11-68.94a18.78,18.78,0,0,1,5.9-14c2.67-2.65,6.07-3.19,9.49-3.85h.75c1.16.7,2.44.37,3.66.37q73.94,0,147.87,0c1.22,0,2.5.33,3.66-.37Z" transform="translate(-145.33 -169.48)"/><path class="cls-1" d="M196.39,169.57c-.27.22-.5.55-.8.63-8.53,2.29-13.57,8.26-13.61,16.92q-.16,35.41,0,70.84c.06,10.13,7.58,17.32,17.71,17.36q21.93.09,43.85,0c2.31,0,3.2.41,3.18,3-.14,14.74-.12,29.48,0,44.23,0,2.26-.55,2.88-2.88,3a71.61,71.61,0,0,0-69,71.28c-.2,17.49-.1,35,0,52.47,0,2.64-.46,3.59-3.38,3.75-11.08.6-21,8.67-24.61,19.52-.42,1.24-.21,2.76-1.44,3.69q0-151.66-.07-303.32c0-2.93.79-3.41,3.5-3.39C164.68,169.64,180.53,169.57,196.39,169.57Z" transform="translate(-145.33 -169.48)"/><path class="cls-2" d="M171.64,553.43c.94-1.26,2.3-.73,3.48-.73q161.64,0,323.3,0c1.29,0,2.78-.59,3.85.72Z" transform="translate(-145.33 -169.48)"/><path class="cls-3" d="M504.52,553.43c2-.61,3.93-1.12,5.82-1.86a28.77,28.77,0,0,0,17.59-18.41c.41-1.24.15-2.75,1.33-3.72,0,7.38-.06,14.75,0,22.12,0,1.61-.31,2-1.92,1.92C519.77,553.37,512.15,553.43,504.52,553.43Z" transform="translate(-145.33 -169.48)"/><path class="cls-3" d="M145.4,530.19c.25.25.64.45.71.74,3.2,11.93,10.88,19.17,22.85,22,.18,0,.29.36.44.54-7.38,0-14.75-.06-22.12.05-1.61,0-1.95-.31-1.92-1.92C145.47,544.44,145.4,537.31,145.4,530.19Z" transform="translate(-145.33 -169.48)"/><path class="cls-2" d="M352.33,169.57c-.95,1.24-2.3.73-3.48.73q-74.12,0-148.24,0c-1.18,0-2.53.51-3.47-.73Z" transform="translate(-145.33 -169.48)"/><path class="cls-1" d="M337.27,452.78q-76.08,0-152.15.1c-3.72,0-4.46-1-4.42-4.55.2-16.87,0-33.73.11-50.59.18-32.14,21.49-58.35,52.86-65.1a60.43,60.43,0,0,1,13-1.23q65.38,0,130.78-.07c3,0,3.6.9,3.59,3.72q-.17,35.42,0,70.82c0,3-.76,3.9-3.68,3.63s-5.74,0-8.61-.06c-2.12,0-3.86.49-3.88,2.95s1.66,3.07,3.8,3.06c5.88,0,11.75,0,17.62,0h70.45c.87,0,1.75,0,2.62,0,2.06-.08,3.37-1.07,3.27-3.23-.09-2-1.41-2.76-3.3-2.76-3.37,0-6.75-.12-10.12,0-2.08.1-2.74-.5-2.73-2.67q.11-34.84,0-69.7c0-3,.93-3,3.24-2.08q34.47,13.15,42.74,49.06a61.17,61.17,0,0,1,1.4,13.76c0,17.12-.08,34.23.09,51.34,0,3.12-1,3.63-3.8,3.63Q413.71,452.72,337.27,452.78Z" transform="translate(-145.33 -169.48)"/><path class="cls-1" d="M337.49,547.38q-80.4,0-160.81,0c-4.43,0-8.82-.32-12.68-2.57-6.69-3.9-11.4-9.38-12.4-17.38-.23-1.85-.83-3.7,1.85-4.81a1.81,1.81,0,0,0-.29-3.45c-1.9-.59-1.75-1.67-1.75-3,0-11.62-.09-23.24,0-34.86a22.54,22.54,0,0,1,22-22.48c1.5-.06,3-.06,4.5-.06H488.31c5,0,10,.07,15,.18,1.73,0,3.64,0,2.62,2.83-.31.85.42,1.62,1.32,2a1.81,1.81,0,0,0,2.55-.85c.93-2.44,2.05-1.17,3.25-.39a22.3,22.3,0,0,1,7.83,8.88c.65,1.28,1.57,2.58.12,4a1.62,1.62,0,0,0,.15,2.39c4,2.63,1.38,6.59,2.11,9.86.14.67-.22,1.07-.85,1.44-2.39,1.38-2.63,3,0,4.3,1.14.57,1,1.43.85,2.18-.46,3.27,1.59,7.09-2.27,9.68-.87.58-.2,1.82.55,2.61,2.56,2.68,2.51,8.61-.06,11.37-1,1.06-1.33,2.61-.06,3.22,2.73,1.33,2,3.48,1.56,5.38a24.14,24.14,0,0,1-8.63,14c-6,4.92-12.19,5.44-19,5.44Q416.4,547.4,337.49,547.38Z" transform="translate(-145.33 -169.48)"/><path class="cls-1" d="M274.66,269.34q-36.71,0-73.42,0C192.31,269.33,188,265,188,256q0-33.54,0-67.06c0-8.88,4.47-13.33,13.35-13.33H348.16c8.82,0,13.27,4.51,13.28,13.4q0,33.54,0,67.06c0,8.93-4.37,13.24-13.36,13.25Q311.38,269.36,274.66,269.34Z" transform="translate(-145.33 -169.48)"/><path class="cls-1" d="M387.42,294.08c3.36,4.08,6.24,3,8.87.16,2-2.2,3.64-1.9,5.81,0,4.33,3.71,4.56,3.73,8.7.06,2.21-2,3.7-2,5.93,0,4.22,3.72,4.45,3.72,8.71,0,2.15-1.86,3.76-2.32,5.79-.08,2.7,3,5.67,3.88,9.29-.43v4.4q0,53.79.05,107.58c0,2.72-.37,3.86-3.56,3.82-15.61-.2-31.23-.11-46.85-.07-1.91,0-3.21.11-3.2-2.62q.14-55.49.07-111A14.4,14.4,0,0,1,387.42,294.08Z" transform="translate(-145.33 -169.48)"/><path class="cls-1" d="M296.74,300.1c0,7.37-.08,14.73,0,22.1,0,2.3-.37,3.27-3,3.24-12.74-.14-25.47-.12-38.2,0-2.26,0-3-.52-3-2.89q.16-22.28,0-44.57c0-2.15.65-2.88,2.74-2.65,2.41.26,5.14-1,6.33,2.82.52,1.67,3.15,1,3.36-.63.33-2.46,1.67-2.21,3.27-2.18s3.25,0,4.87,0c1.27,0,2.79-.44,2.69,1.83-.06,1.13.93,1.71,2,1.77s2-.56,2-1.36c.11-2.74,2-2.22,3.63-2.24h5.24c1,0,2-.17,1.88,1.45a2,2,0,0,0,2.08,2.15c1.34,0,2-.88,2.26-2.07.14-.62-.34-1.68,1-1.43,1.08.2.74,1.15.74,1.82Q296.75,288.68,296.74,300.1Z" transform="translate(-145.33 -169.48)"/><path d="M250.71,433.15c-3.49,0-7,.06-10.47,0-4.65-.1-6.71-2-6.79-6.59q-.16-10.67,0-21.32c.07-4.58,2.12-6.5,6.79-6.54q10.47-.1,20.95,0c4.82.05,6.72,2,6.78,6.91q.12,10.29,0,20.58c-.06,5-2,6.89-7.15,7C257.45,433.19,254.08,433.15,250.71,433.15Z" transform="translate(-145.33 -169.48)"/><path d="M250.7,387.93c-3.62,0-7.24.06-10.85,0-4.06-.08-6.26-1.9-6.35-5.78q-.27-11.42,0-22.83c.08-3.64,2.3-5.77,6-5.84q11.24-.24,22.46,0c3.84.09,5.91,2.3,6,6.25.12,7.36.13,14.72,0,22.08-.08,4.15-2.17,6-6.38,6.12C257.94,388,254.32,387.93,250.7,387.93Z" transform="translate(-145.33 -169.48)"/><path d="M299,387.92c-3.62,0-7.24.07-10.86,0-4.13-.09-6.22-2.14-6.26-6.22-.08-7.24-.07-14.48,0-21.72,0-4.14,2-6.43,6.06-6.52,7.48-.16,15-.16,22.46,0,3.78.08,5.9,2.46,6,6.3.08,7.36.1,14.72,0,22.08,0,3.88-2.21,5.94-6.1,6S302.69,387.92,299,387.92Z" transform="translate(-145.33 -169.48)"/><path d="M299.08,398.67c3.62,0,7.24-.08,10.86,0,4.13.11,6.3,2.17,6.35,6.2q.13,11,0,22.09c0,3.83-2.21,6-6.08,6.12-7.48.13-15,.14-22.45,0-3.87-.08-5.89-2.31-5.92-6.22q-.12-11,0-22.09c0-3.88,2.11-6,6-6.09C291.6,398.57,295.34,398.67,299.08,398.67Z" transform="translate(-145.33 -169.48)"/><path d="M337.46,477.1q71.6,0,143.19,0c6.09,0,11.7.93,16,5.66.68.74,1.11,1.13,2,.11a2,2,0,0,1,3.42.36,2.06,2.06,0,0,1-1.31,3.25c-1.36.39-1,1.12-.68,1.93.82,2,.64,4.22,1.25,6.2,1.44,4.74-.73,9.37-.07,14,.18,1.32-.35,2.73.76,3.92a1.76,1.76,0,0,1,.24,2.12c-3.49,5-5.66,11.23-12.37,13.19-.84.25-1.69.36-2.18,1.26-1.31,2.44-2.65,2.53-4.52.35-1.09-1.29-9.3-.93-10.55.35-1.48,1.5-2.56,1.51-4.05,0s-9.28-1.53-10.7-.07-2.51,1.6-4.06.14c-1.76-1.65-9.14-1.55-11,.11-1.09,1-2,1.3-3.29.46-4-2.63-8.08-2.68-12.1,0a2.21,2.21,0,0,1-2.75-.06c-4-2.63-8.07-2.67-12.08.06a2.21,2.21,0,0,1-2.75-.06,10,10,0,0,0-12,0,2.06,2.06,0,0,1-2.44.21c-4.22-3-8.4-2.9-12.63-.06a2.06,2.06,0,0,1-2.44-.08q-6.21-4.14-12.38.09a2.06,2.06,0,0,1-2.45-.09c-4.15-2.79-8.27-2.72-12.4.09a2.06,2.06,0,0,1-2.45-.09c-4.12-2.79-8.23-2.72-12.33.06a2.06,2.06,0,0,1-2.45,0,10.11,10.11,0,0,0-12.28,0,2.06,2.06,0,0,1-2.45.06c-4.1-2.79-8.21-2.85-12.34-.08a2.28,2.28,0,0,1-2.76-.1c-4-2.59-8.09-2.69-12.09.11a2,2,0,0,1-2.45.09q-6.17-4.25-12.37-.1a2,2,0,0,1-2.44.09c-4.23-2.85-8.42-2.93-12.62.06a1.83,1.83,0,0,1-2.13,0c-4.21-3-8.4-2.92-12.63,0a2,2,0,0,1-2.44-.12c-4-2.76-8.05-2.7-12.08-.08a2.24,2.24,0,0,1-2.75.07c-4-2.75-8.06-2.68-12.09-.07a2.23,2.23,0,0,1-2.75.07c-4-2.76-8-2.67-12-.1a2.27,2.27,0,0,1-2.75.13c-4.1-2.76-8.19-2.73-12.29,0-.93.64-2.22.73-2.66-.23-1-2.26-3.25-2.45-5-3.44a16.94,16.94,0,0,1-9.18-15.26c-.15-5.49-.11-11,0-16.49.17-10.68,7.23-17.85,17.91-18,9.75-.14,19.5,0,29.24,0Z" transform="translate(-145.33 -169.48)"/><path class="cls-4" d="M507.93,533.66c1.46.07,2.39.81,2.35,2.28a2.08,2.08,0,0,1-2.13,2.15,2.22,2.22,0,0,1-.22-4.43Z" transform="translate(-145.33 -169.48)"/><path class="cls-5" d="M324.67,543.56a2.13,2.13,0,0,1-2.32,2.25,2.15,2.15,0,0,1-2.18-2.42,2,2,0,0,1,2.15-2A2.09,2.09,0,0,1,324.67,543.56Z" transform="translate(-145.33 -169.48)"/><path class="cls-6" d="M203.67,545.87c-1.4-.38-2.25-1.18-2-2.68a2.23,2.23,0,0,1,4.43.37C206,545,205.06,545.72,203.67,545.87Z" transform="translate(-145.33 -169.48)"/><path class="cls-6" d="M262.94,541.36a2.07,2.07,0,0,1,2.4,1.89,2.23,2.23,0,1,1-4.44.26A2,2,0,0,1,262.94,541.36Z" transform="translate(-145.33 -169.48)"/><path class="cls-5" d="M376.92,535.82a2.29,2.29,0,0,1-2.43,2.28,2.2,2.2,0,0,1,.26-4.4A2.18,2.18,0,0,1,376.92,535.82Z" transform="translate(-145.33 -169.48)"/><path class="cls-4" d="M278.16,545.9c-1.41-.19-2.29-.78-2.38-2.11a2,2,0,0,1,2.16-2.43,2.07,2.07,0,0,1,2.29,2C280.38,544.82,279.32,545.53,278.16,545.9Z" transform="translate(-145.33 -169.48)"/><path class="cls-7" d="M191.23,543.11c0,1.77-.77,2.7-2.18,2.71a2.16,2.16,0,0,1-2.32-2.3,2,2,0,0,1,2-2.16A2.08,2.08,0,0,1,191.23,543.11Z" transform="translate(-145.33 -169.48)"/><path class="cls-4" d="M508,478.79a2.23,2.23,0,0,1-.05-4.45,2.14,2.14,0,0,1,2.39,2.29C510.29,477.84,509.49,478.67,508,478.79Z" transform="translate(-145.33 -169.48)"/><path class="cls-5" d="M273,536a2,2,0,0,1-2.1,2.15,2.13,2.13,0,0,1-2.35-2.31,2.07,2.07,0,0,1,2.51-2.1A2,2,0,0,1,273,536Z" transform="translate(-145.33 -169.48)"/><path class="cls-5" d="M337.54,545.89c-1.4-.13-2.32-.69-2.47-2a2,2,0,0,1,2.05-2.53,2.07,2.07,0,0,1,2.38,1.88C339.73,544.75,338.69,545.45,337.54,545.89Z" transform="translate(-145.33 -169.48)"/><path class="cls-8" d="M381.55,541.36a2,2,0,0,1,2.35,1.86,2.09,2.09,0,0,1-2,2.6,2.18,2.18,0,0,1-2.42-2.28A2.06,2.06,0,0,1,381.55,541.36Z" transform="translate(-145.33 -169.48)"/><path class="cls-6" d="M396.83,541.36a2,2,0,0,1,2,2.2,2.24,2.24,0,1,1-2-2.2Z" transform="translate(-145.33 -169.48)"/><path class="cls-9" d="M411.14,541.34c1.69.09,2.49.9,2.5,2.13a2.17,2.17,0,0,1-2.35,2.35,2.09,2.09,0,0,1-2.09-2.53A2,2,0,0,1,411.14,541.34Z" transform="translate(-145.33 -169.48)"/><path class="cls-6" d="M456.12,541.36a2,2,0,0,1,1.94,2.15,2.06,2.06,0,0,1-2.34,2.29,2.23,2.23,0,1,1,.4-4.44Z" transform="translate(-145.33 -169.48)"/><path class="cls-7" d="M473,543.63c-.31,1.38-1.1,2.32-2.51,2.2a2.11,2.11,0,0,1-2-2.54,2,2,0,0,1,2.22-1.94A2.22,2.22,0,0,1,473,543.63Z" transform="translate(-145.33 -169.48)"/><path class="cls-9" d="M493.14,464.07c-1.4-.31-2.31-1-2.17-2.56a2,2,0,0,1,2.27-1.94,2,2,0,0,1,2.19,2.05C495.49,463.1,494.47,463.79,493.14,464.07Z" transform="translate(-145.33 -169.48)"/><path class="cls-10" d="M517.36,469.43a2.07,2.07,0,0,1-2,2.24,2.11,2.11,0,0,1-2.4-2.26,2.08,2.08,0,0,1,2.44-2.19A2,2,0,0,1,517.36,469.43Z" transform="translate(-145.33 -169.48)"/><path class="cls-9" d="M515.35,486.59c-1.37-.17-2.4-.84-2.45-2.3a2.24,2.24,0,0,1,4.43-.41C517.56,485.38,516.7,486.17,515.35,486.59Z" transform="translate(-145.33 -169.48)"/><path class="cls-11" d="M510.35,491.5c-.37,1.41-1.16,2.26-2.67,2.05a2,2,0,0,1-1.82-2.36,2,2,0,0,1,2.16-2.07C509.48,489.15,510.16,490.17,510.35,491.5Z" transform="translate(-145.33 -169.48)"/><path class="cls-9" d="M517.35,514.37a1.89,1.89,0,0,1-2.05,1.71,2,2,0,0,1-2.4-2.2,2.17,2.17,0,0,1,2.46-2.23C516.53,511.73,517.39,512.54,517.35,514.37Z" transform="translate(-145.33 -169.48)"/><path class="cls-11" d="M507.29,518.86c2.14,0,2.93.85,3,2A2.16,2.16,0,0,1,508,523.3a2.06,2.06,0,0,1-2.17-2.44A1.93,1.93,0,0,1,507.29,518.86Z" transform="translate(-145.33 -169.48)"/><path class="cls-9" d="M176.35,528.88a2,2,0,0,1-2.06,2.11,2.07,2.07,0,0,1-2.36-2.26,2.21,2.21,0,1,1,4.42.15Z" transform="translate(-145.33 -169.48)"/><path class="cls-12" d="M213.72,535.7a2.23,2.23,0,0,1-4.44.33,2,2,0,0,1,2.24-2.32A2,2,0,0,1,213.72,535.7Z" transform="translate(-145.33 -169.48)"/><path class="cls-8" d="M241.09,533.66c1.43.09,2.38.81,2.34,2.29a2.08,2.08,0,0,1-2.14,2.13,2,2,0,0,1-2.3-2.28C239,534.44,239.83,533.83,241.09,533.66Z" transform="translate(-145.33 -169.48)"/><path class="cls-13" d="M401.93,536c.16-1.35.79-2.2,2.07-2.29a2.2,2.2,0,0,1,.45,4.37A2.31,2.31,0,0,1,401.93,536Z" transform="translate(-145.33 -169.48)"/><path class="cls-12" d="M436.21,535.61c-.11,1.54-.91,2.46-2.32,2.46a2,2,0,0,1-2.17-2,2,2,0,0,1,1.85-2.32A2.26,2.26,0,0,1,436.21,535.61Z" transform="translate(-145.33 -169.48)"/><path class="cls-9" d="M463.68,533.68a2,2,0,0,1,2,2,2,2,0,0,1-2.15,2.43,2.11,2.11,0,0,1-2.28-2.37C461.34,534.5,462.16,533.72,463.68,533.68Z" transform="translate(-145.33 -169.48)"/><path class="cls-11" d="M174.41,545.89c-1.62-.18-2.52-1-2.47-2.44a2.21,2.21,0,1,1,4.41.24A2.24,2.24,0,0,1,174.41,545.89Z" transform="translate(-145.33 -169.48)"/><path class="cls-9" d="M221,543.65c-.4,1.37-1.15,2.36-2.63,2.16a2.08,2.08,0,0,1-1.87-2.38,2,2,0,0,1,2.51-2C220.32,541.53,220.82,542.48,221,543.65Z" transform="translate(-145.33 -169.48)"/><path class="cls-9" d="M250.49,543.12c0,1.72-.71,2.57-1.94,2.7a2.16,2.16,0,0,1-2.49-2.19,2.06,2.06,0,0,1,2.35-2.27A2,2,0,0,1,250.49,543.12Z" transform="translate(-145.33 -169.48)"/><path class="cls-12" d="M292.82,545.85a2.13,2.13,0,0,1-2.18-2.05,2,2,0,0,1,2.11-2.43,2,2,0,0,1,2.25,2A2.25,2.25,0,0,1,292.82,545.85Z" transform="translate(-145.33 -169.48)"/><path class="cls-9" d="M307.78,541.35a2,2,0,0,1,2,2.22,2,2,0,0,1-2.35,2.24,2.24,2.24,0,1,1,.35-4.46Z" transform="translate(-145.33 -169.48)"/><path class="cls-10" d="M517.35,528.29c0,1.6-.58,2.48-1.88,2.64a2.23,2.23,0,1,1-.27-4.44A2.05,2.05,0,0,1,517.35,528.29Z" transform="translate(-145.33 -169.48)"/><path class="cls-9" d="M354.4,543.65c-.39,1.38-1.14,2.37-2.63,2.16a2.07,2.07,0,0,1-1.86-2.38,2,2,0,0,1,2.51-2C353.76,541.53,354.23,542.5,354.4,543.65Z" transform="translate(-145.33 -169.48)"/><path class="cls-9" d="M441.23,545.9c-1.63-.24-2.53-1.13-2.45-2.51a2.22,2.22,0,0,1,4.42.36C443.15,545.11,442.21,545.61,441.23,545.9Z" transform="translate(-145.33 -169.48)"/><path class="cls-11" d="M485.49,545.87a2.15,2.15,0,0,1-2.14-2.14,2,2,0,0,1,2.2-2.37,2,2,0,0,1,2.2,2.06A2.29,2.29,0,0,1,485.49,545.87Z" transform="translate(-145.33 -169.48)"/><path class="cls-5" d="M502.55,543.31c-.11,1.58-.79,2.54-2.29,2.51a2.1,2.1,0,0,1-2.15-2.13,2.07,2.07,0,0,1,2.28-2.33C501.78,541.35,502.31,542.25,502.55,543.31Z" transform="translate(-145.33 -169.48)"/><path class="cls-14" d="M169.33,536a2.23,2.23,0,0,1-2.6,2,2.18,2.18,0,1,1,.67-4.3A2.11,2.11,0,0,1,169.33,536Z" transform="translate(-145.33 -169.48)"/><path class="cls-6" d="M181.68,533.67c1.56.05,2.46.82,2.44,2.27a2.06,2.06,0,0,1-2.12,2.14,2.21,2.21,0,0,1-.32-4.41Z" transform="translate(-145.33 -169.48)"/><path class="cls-15" d="M493,533.67c1.53.14,2.48.8,2.42,2.3a2.22,2.22,0,0,1-4.43-.21C491,534.38,492,533.9,493,533.67Z" transform="translate(-145.33 -169.48)"/><path class="cls-12" d="M500.12,526.47a2.08,2.08,0,0,1,2.34,1.91,2.18,2.18,0,1,1-4.31.68A2.19,2.19,0,0,1,500.12,526.47Z" transform="translate(-145.33 -169.48)"/><path class="cls-12" d="M226.42,538.13c-1.31-.2-2.3-.79-2.29-2.33a2,2,0,0,1,2.1-2.09,2,2,0,0,1,2.34,1.86C228.76,537.08,227.81,537.79,226.42,538.13Z" transform="translate(-145.33 -169.48)"/><path class="cls-12" d="M159.25,526.46a2.2,2.2,0,0,1,2.32,2.34,2.05,2.05,0,0,1-2.1,2.14,2,2,0,0,1-2.27-2.29A2.1,2.1,0,0,1,159.25,526.46Z" transform="translate(-145.33 -169.48)"/><path class="cls-6" d="M256.14,538.14c-1.42-.11-2.34-.81-2.34-2.3a2.2,2.2,0,0,1,4.38-.3A2.2,2.2,0,0,1,256.14,538.14Z" transform="translate(-145.33 -169.48)"/><path class="cls-16" d="M517.36,499.08a2,2,0,0,1-2,2.18,2.19,2.19,0,1,1,0-4.36A2,2,0,0,1,517.36,499.08Z" transform="translate(-145.33 -169.48)"/><path class="cls-13" d="M287.88,536a2.12,2.12,0,0,1-2.44,2.09,2.18,2.18,0,1,1,2.44-2.09Z" transform="translate(-145.33 -169.48)"/><path class="cls-14" d="M300.38,533.68c1.4.1,2.36.77,2.34,2.25a2.07,2.07,0,0,1-2.12,2.13,2.05,2.05,0,0,1-2.31-2.26C298.29,534.44,299.15,533.87,300.38,533.68Z" transform="translate(-145.33 -169.48)"/><path class="cls-16" d="M366.93,541.37a2,2,0,0,1,2.13,2,2,2,0,0,1-2.18,2.38,2.11,2.11,0,0,1-2.17-2.44A2,2,0,0,1,366.93,541.37Z" transform="translate(-145.33 -169.48)"/><path class="cls-6" d="M315.41,538.13c-1.18-.1-2.11-.57-2.26-1.92a2.2,2.2,0,0,1,4.36-.66C317.7,537,316.87,537.83,315.41,538.13Z" transform="translate(-145.33 -169.48)"/><path class="cls-6" d="M330.26,533.67a2.21,2.21,0,0,1-.3,4.41,2.06,2.06,0,0,1-2.08-2.18A2.12,2.12,0,0,1,330.26,533.67Z" transform="translate(-145.33 -169.48)"/><path class="cls-14" d="M345.08,538.12c-1.33-.16-2.35-.77-2.38-2.26a2,2,0,0,1,2.05-2.14,2,2,0,0,1,2.36,1.79C347.33,537,346.46,537.77,345.08,538.12Z" transform="translate(-145.33 -169.48)"/><path class="cls-13" d="M362,536.06a2.2,2.2,0,0,1-2.59,2,2.19,2.19,0,1,1,.67-4.32A2.09,2.09,0,0,1,362,536.06Z" transform="translate(-145.33 -169.48)"/><path class="cls-12" d="M502.48,469.3c-.06,1.41-.69,2.36-2.21,2.38a2.23,2.23,0,0,1,0-4.45C501.65,467.21,502.29,468,502.48,469.3Z" transform="translate(-145.33 -169.48)"/><path class="cls-6" d="M390.26,533.68a2,2,0,0,1,1.34,1.89,2.21,2.21,0,1,1-4.39.24C387.23,534.57,387.94,533.73,390.26,533.68Z" transform="translate(-145.33 -169.48)"/><path class="cls-17" d="M508.37,508.48c-1.59-.05-2.4-.73-2.5-2A2.06,2.06,0,0,1,508,504a2.1,2.1,0,0,1,2.29,2A2.23,2.23,0,0,1,508.37,508.48Z" transform="translate(-145.33 -169.48)"/><path class="cls-12" d="M421.31,536.12a2.14,2.14,0,0,1-2.57,1.92,2,2,0,0,1-1.9-2.32,2.24,2.24,0,0,1,4.47.4Z" transform="translate(-145.33 -169.48)"/><path class="cls-14" d="M478.5,538.12c-1.31-.16-2.34-.76-2.37-2.25a2,2,0,0,1,2.05-2.14,2,2,0,0,1,2.36,1.78C480.76,537,479.88,537.76,478.5,538.12Z" transform="translate(-145.33 -169.48)"/><path class="cls-10" d="M448.72,538.12c-1.23-.16-2.09-.73-2.15-2.07a2.2,2.2,0,0,1,4.38-.35A2.19,2.19,0,0,1,448.72,538.12Z" transform="translate(-145.33 -169.48)"/><path class="cls-10" d="M198.87,535.33c0,1.94-.83,2.7-2.05,2.75a2.09,2.09,0,0,1-2.35-2.26,2,2,0,0,1,2.44-2.12A1.89,1.89,0,0,1,198.87,535.33Z" transform="translate(-145.33 -169.48)"/><path class="cls-16" d="M235.69,543.47c-.15,1.38-.79,2.36-2.28,2.33a2,2,0,0,1-2.1-2.13,2,2,0,0,1,2.25-2.29C234.93,541.38,235.46,542.27,235.69,543.47Z" transform="translate(-145.33 -169.48)"/><path class="cls-16" d="M425.34,541.44c2-.17,2.87.59,3,1.78a2.1,2.1,0,0,1-2,2.57,2,2,0,0,1-2.33-2.22C424,542.32,424.7,541.5,425.34,541.44Z" transform="translate(-145.33 -169.48)"/><path class="cls-18" d="M275,188.81q31.29,0,62.58,0c7.5,0,9.74,2.29,9.75,9.87q0,24,0,48c0,7.25-2.43,9.69-9.65,9.69H211.79c-7.22,0-9.78-2.49-9.79-9.59q0-24.36,0-48.71c0-6.75,2.5-9.22,9.31-9.23Q243.17,188.79,275,188.81Z" transform="translate(-145.33 -169.48)"/><path class="cls-18" d="M413.7,366.81c-4,0-8,0-12,0-2,0-3.57-.6-3.67-2.79-.12-2.38,1.45-3.22,3.63-3.22H426c2,0,3.49.84,3.5,3s-1.42,3-3.47,3Z" transform="translate(-145.33 -169.48)"/><path d="M414.06,339c3.87,0,7.73,0,11.59,0,2.14,0,3.86.63,3.85,3s-1.71,3-3.85,3q-12,0-23.93,0c-2,0-3.55-.64-3.65-2.82-.1-2.4,1.48-3.2,3.65-3.19Z" transform="translate(-145.33 -169.48)"/><path class="cls-18" d="M414,317.21c4,0,8,0,12,0,2,0,3.52.74,3.57,2.9s-1.38,3.1-3.4,3.11q-12.33,0-24.68,0c-2,0-3.43-.94-3.37-3.11s1.57-2.91,3.57-2.9C405.74,317.22,409.86,317.21,414,317.21Z" transform="translate(-145.33 -169.48)"/><path class="cls-5" d="M285.52,315.78c-1.38-.28-2.26-1.07-2.12-2.5a2.11,2.11,0,0,1,2.55-2,2,2,0,0,1,1.92,2.25A2.2,2.2,0,0,1,285.52,315.78Z" transform="translate(-145.33 -169.48)"/><path class="cls-5" d="M295.07,291.37c-.13,1.41-.83,2.4-2.29,2.42a2.22,2.22,0,0,1,0-4.44C294.18,289.32,294.77,290.18,295.07,291.37Z" transform="translate(-145.33 -169.48)"/><path class="cls-9" d="M277.9,318.85c1.39.22,2.36,1,2.32,2.43a2.23,2.23,0,0,1-4.45-.22C275.8,319.7,276.67,319.11,277.9,318.85Z" transform="translate(-145.33 -169.48)"/><path class="cls-5" d="M263.17,323.38a2.07,2.07,0,0,1-2.28-2,2.24,2.24,0,1,1,4.47,0A2,2,0,0,1,263.17,323.38Z" transform="translate(-145.33 -169.48)"/><path class="cls-12" d="M292.81,318.88a2.28,2.28,0,0,1,2.2,2.5,2,2,0,0,1-2.26,2,2,2,0,0,1-2.11-2.43A2.13,2.13,0,0,1,292.81,318.88Z" transform="translate(-145.33 -169.48)"/><path class="cls-9" d="M280.27,291.6c-.29,1.43-1.17,2.33-2.57,2.18a2.07,2.07,0,0,1-1.94-2.32,2,2,0,0,1,2.49-2.09A2.15,2.15,0,0,1,280.27,291.6Z" transform="translate(-145.33 -169.48)"/><path class="cls-8" d="M271,286c-1.59-.08-2.51-.82-2.48-2.28a2.1,2.1,0,0,1,2.14-2.15A2.22,2.22,0,0,1,271,286Z" transform="translate(-145.33 -169.48)"/><path class="cls-16" d="M258.22,298.62c-.12,1.14-.6,2.07-1.94,2.21a2.22,2.22,0,0,1-.56-4.4C257.19,296.25,258,297.16,258.22,298.62Z" transform="translate(-145.33 -169.48)"/><path class="cls-9" d="M270.94,300.87c-1.58-.06-2.36-.92-2.38-2.12a2.17,2.17,0,0,1,2.35-2.35,2.08,2.08,0,0,1,2.09,2.52A2,2,0,0,1,270.94,300.87Z" transform="translate(-145.33 -169.48)"/><path class="cls-10" d="M285.58,296.34c1.37.22,2.32.9,2.28,2.41a2,2,0,0,1-2.13,2.1,2,2,0,0,1-2.32-1.92C283.24,297.45,284.19,296.68,285.58,296.34Z" transform="translate(-145.33 -169.48)"/><path class="cls-12" d="M277.82,304.08c1.45.2,2.43.89,2.39,2.36a2.22,2.22,0,0,1-4.43-.19C275.79,304.87,276.74,304.39,277.82,304.08Z" transform="translate(-145.33 -169.48)"/><path class="cls-11" d="M273,313.6a2.06,2.06,0,0,1-2.13,2.13,2.24,2.24,0,1,1,.22-4.46A2.07,2.07,0,0,1,273,313.6Z" transform="translate(-145.33 -169.48)"/><path class="cls-12" d="M265.38,306.36a2.06,2.06,0,0,1-2.11,2.15,2.18,2.18,0,1,1-.28-4.35A2.13,2.13,0,0,1,265.38,306.36Z" transform="translate(-145.33 -169.48)"/><path class="cls-17" d="M263.28,289.35a2,2,0,0,1,2.08,2.12,2.24,2.24,0,1,1-2.08-2.12Z" transform="translate(-145.33 -169.48)"/><path class="cls-12" d="M285.89,286c-1.55-.12-2.5-.76-2.48-2.28a2.07,2.07,0,0,1,2.12-2.13,2.09,2.09,0,0,1,2.33,2.27C287.87,285.28,286.94,285.79,285.89,286Z" transform="translate(-145.33 -169.48)"/><path class="cls-10" d="M256,281.54a2.26,2.26,0,0,1,2.22,2.46,2.21,2.21,0,0,1-4.41,0A2.24,2.24,0,0,1,256,281.54Z" transform="translate(-145.33 -169.48)"/><path class="cls-10" d="M295,306.28a2.09,2.09,0,0,1-1.92,2.21,2.19,2.19,0,0,1-.65-4.33C293.9,304,294.77,304.77,295,306.28Z" transform="translate(-145.33 -169.48)"/><path class="cls-15" d="M258.23,313.42c-.27,1.45-.93,2.32-2.21,2.3a2.06,2.06,0,0,1-2.17-2.39,2,2,0,0,1,2.13-2.06C257.51,311.27,258,312.33,258.23,313.42Z" transform="translate(-145.33 -169.48)"/><path class="cls-1" d="M337.51,522.79H192.87c-9.39,0-13.47-4.07-13.49-13.41,0-4.5,0-9,0-13.49.06-8.28,4.49-12.73,12.76-12.73q41,0,82.06,0H481c10.31,0,14.25,3.94,14.25,14.26,0,4.37,0,8.74,0,13.11-.11,7.88-4.51,12.26-12.39,12.26Q410.2,522.81,337.51,522.79Z" transform="translate(-145.33 -169.48)"/><path class="cls-1" d="M274.39,250.29c-20.74,0-41.48-.07-62.21.07-3.33,0-4.24-1-4.21-4.24q.24-23.61,0-47.23c0-2.95.57-4.1,3.87-4.09q62.78.16,125.56,0c3.1,0,4,.82,4,3.95q-.22,23.81,0,47.6c0,3.14-.93,4-4,4C316.37,250.23,295.38,250.29,274.39,250.29Z" transform="translate(-145.33 -169.48)"/><path d="M323.86,503.15a13.42,13.42,0,1,1,26.83-.06,13.42,13.42,0,0,1-26.83.06Z" transform="translate(-145.33 -169.48)"/></svg>