<svg id="Camada_1" data-name="Camada 1" xmlns="http://www.w3.org/2000/svg" viewBox="0 0 609.6 338.98"><defs><style>.cls-1{fill:#e3b13c;}.cls-2{fill:#383637;}</style></defs><title>Logo Principal</title><path class="cls-1" d="M327.51,166.39a13.9,13.9,0,0,0,4.91.64c10.91.25,21.82.34,32.69,1.37,9.1.86,18.22,1.45,27.32,2.45,6.79.76,13.58,1.59,20.36,2.37,7.26.84,14.46,2.1,21.67,3.27q9.63,1.56,19.23,3.33c5,.92,10,1.94,14.91,3s9.73,2.27,14.57,3.48c6.68,1.67,13.38,3.23,20,5.14,9.34,2.7,18.69,5.45,27.89,8.59,10.85,3.7,21.57,7.8,32.09,12.4A333.85,333.85,0,0,1,605.2,234.3a54.64,54.64,0,0,1,4.63,3.28c-6.39-3.14-12.75-6.36-19.19-9.41-10.6-5-21.48-9.27-32.48-13.31-10-3.68-20.18-7-30.4-10-8.8-2.62-17.67-5-26.65-7-8-1.79-16-3.86-24.08-5.46-9.26-1.83-18.52-3.68-27.88-5.05-7.3-1.06-14.57-2.34-21.88-3.36-6.53-.91-13.09-1.64-19.65-2.35q-12.33-1.34-24.67-2.5c-4.67-.45-9.35-1.06-14-1.14-8.92-.14-17.81-.88-26.71-1.31-18.07-.86-36.14-.91-54.21-.59-17.34.31-34.67,1.22-52,2.54q-18.19,1.39-36.33,3.44c-8.84,1-17.66,2.16-26.45,3.55q-12.69,2-25.34,4.34c-8.58,1.59-17.12,3.34-25.64,5.17-7.12,1.52-14.13,3.51-21.21,5.22-8.55,2.07-17,4.55-25.37,7.15-7.25,2.25-14.42,4.73-21.57,7.31a377.65,377.65,0,0,0-35.26,14.56c-5.6,2.69-11.13,5.52-16.73,8.22,7.43-5.38,15.49-9.7,23.56-14a348,348,0,0,1,31.67-14.67c10-4.09,20.21-7.85,30.57-11,8-2.48,16-5.09,24.06-7.3,8.23-2.24,16.5-4.39,24.86-6.12,6.75-1.4,13.45-3.07,20.21-4.39,6.15-1.21,12.36-2.1,18.54-3.18,6.41-1.12,12.83-2.19,19.3-3,6.15-.75,12.26-1.85,18.42-2.48,11-1.13,22-2.06,33-3,11.35-1,22.74-1.13,34.12-1.39,4.21-.1,8.42-.42,12.63-.63Z" transform="translate(-2.13 -166.39)"/><path class="cls-2" d="M337.36,301.77A141,141,0,0,1,351.12,307c11.85,5.69,17.29,17.34,16.35,30.54-1.13,15.84-12.54,27.1-28.72,30.8A66.6,66.6,0,0,1,323.86,370q-26.66,0-53.3,0c-1.08,0-2.38.51-2.41-1.57s1.11-1.77,2.28-1.83c2.94-.17,5.9-.16,8.47-1.93,3-2.06,3.84-5.15,4-8.5.16-2.86.22-5.73.22-8.59q0-42.48,0-85a60.63,60.63,0,0,0-.49-9.52c-.69-4.24-3.13-6.9-7.34-7.69a35.74,35.74,0,0,0-5.46-.58c-1.17-.05-1.67-.29-1.67-1.6s.5-1.74,1.82-1.73c11.07,0,22.15,0,33.22,0,9.32.06,18.64-.33,28,.38,10.81.82,20.15,4.24,26.32,13.92,7.16,11.21,7,25.37-.76,34.79-4.47,5.44-10.71,8.07-17.1,10.41C339,301.23,338.43,301.41,337.36,301.77ZM308,331.08c0,6.35,0,12.71,0,19.06a45.34,45.34,0,0,0,.27,5.47c.63,4.72,3.45,7.26,8.21,7.18,8.63-.15,15.23-4,18.94-11.78,5.26-11,4.66-22.21-.47-33.12-2.72-5.77-7.62-9-13.86-10.19a69.06,69.06,0,0,0-11.12-1c-1.6,0-2,.46-2,2C308.07,316.14,308,323.61,308,331.08Zm0-57.31c0,7.79,0,15.58,0,23.37,0,1.62.37,2.33,2.12,2.12,2.28-.28,4.6-.26,6.88-.6,8.29-1.24,14.3-5.53,17.18-13.55a34.41,34.41,0,0,0,.35-22c-2.18-7.1-7-11.79-14.48-13.4a77,77,0,0,0-9.94-1.14c-1.69-.13-2.14.43-2.12,2.1C308.09,258.35,308,266.06,308,273.77Z" transform="translate(-2.13 -166.39)"/><path class="cls-2" d="M449.53,348.6c0-7.16,0-14.32,0-21.48,0-.94-.89-2.52,1.25-2.68,1.92-.14,1.69,1.26,1.91,2.35,1.83,8.94,4.52,17.56,10,25,4.16,5.68,9.2,10.39,15.93,12.87,8.6,3.18,19.21,2.07,25-6.91,4.78-7.4,3.95-17.43-2.38-24.75-4.83-5.59-11.2-9.1-17.39-12.82-6.41-3.86-12.82-7.72-18.61-12.49-14.65-12.07-19.55-30-13-47.46C459.55,241,480.9,233,499.08,242.64a74.6,74.6,0,0,0,8.08,4.09c3.43,1.3,5.49.41,6.68-3.06a20.55,20.55,0,0,0,1-3.68c.16-1.06.54-1.5,1.67-1.47,1.34,0,1,1,1,1.68q.4,19.8.77,39.61c0,.91.11,1.76-1.28,1.67-1.08-.06-1.93,0-2.17-1.47a47.31,47.31,0,0,0-6.1-17.68c-5-8.12-11.41-14.53-21.25-16.34-7.62-1.41-14.61,1.67-18.34,7.85-3.82,6.33-3.25,13.93,1.45,20.07,4.49,5.84,10.79,9.33,16.9,13,8.5,5.16,17.18,10,24.54,16.85,18.75,17.36,17.17,47.77-3.48,62.71-10,7.24-21.21,7.89-32.79,4.44a62.37,62.37,0,0,1-9.62-4.16c-6-3-10.26-1.57-13.08,4.45-.6,1.29-1.27,1.95-2.66,1.66s-.84-1.54-.84-2.35C449.5,363.24,449.53,355.92,449.53,348.6Z" transform="translate(-2.13 -166.39)"/><path class="cls-1" d="M9.72,467.2c1.32-2.23,3.67-3.15,5.73-4.34A343.43,343.43,0,0,1,56.2,442.71q14.68-6,29.79-11c8.56-2.82,17.16-5.52,25.82-8,8.07-2.34,16.29-4.16,24.46-6.12,6.47-1.55,12.95-3.08,19.46-4.41,5.91-1.21,11.86-2.19,17.81-3.18,7.36-1.22,14.73-2.4,22.11-3.48,5.82-.85,11.66-1.58,17.5-2.23,8.22-.91,16.44-1.76,24.67-2.5,6.1-.56,12.21-1,18.32-1.34,11.84-.73,23.69-1.08,35.54-1.5q15.18-.56,30.33-.18c14.39.36,28.79.9,43.15,1.89q18.18,1.26,36.32,3.4c10.34,1.23,20.67,2.55,31,4.13,8.23,1.25,16.42,2.79,24.6,4.37,6.77,1.31,13.53,2.69,20.25,4.22,8.27,1.88,16.47,4.1,24.69,6.19,7,1.77,13.86,3.94,20.73,6.09a442.77,442.77,0,0,1,44.41,16.56A370.55,370.55,0,0,1,601,462.62a86.18,86.18,0,0,1,10.78,7.26c-3.53-1.82-7-3.68-10.59-5.46-10.75-5.39-21.78-10.11-33-14.4q-16.38-6.28-33.19-11.32c-11.14-3.36-22.39-6.32-33.72-9q-15.41-3.63-30.92-6.66c-10.13-2-20.3-3.79-30.5-5.28-11.47-1.67-23-3-34.53-4.33-13-1.44-26-2.45-39-3.35-12.06-.85-24.16-1.19-36.26-1.42q-18.53-.35-37-.15c-9.63.11-19.27.35-28.88.85-12.95.68-25.91,1.33-38.8,2.61-9.8,1-19.6,2-29.38,3.28-8,1.06-16,2.18-24.07,3.29-6.52.91-13,2.21-19.46,3.42-7.18,1.33-14.36,2.65-21.5,4.16-6.2,1.3-12.36,2.81-18.51,4.32q-7.84,1.94-15.64,4.06c-6,1.63-11.88,3.3-17.78,5.09-9.08,2.75-18,5.87-26.92,9.16a360.64,360.64,0,0,0-39.12,17C11.91,466.3,10.8,466.73,9.72,467.2Z" transform="translate(-2.13 -166.39)"/><path class="cls-2" d="M139.48,370q-22.81,0-45.64,0c-1.34,0-2.29,0-2.12-1.86.11-1.16.47-1.48,1.57-1.46a23.12,23.12,0,0,0,6.62-.63,8.22,8.22,0,0,0,6.29-6.75,54.84,54.84,0,0,0,.71-10.93q.06-42.47,0-84.93c0-2.7-.16-5.41-.28-8.11-.32-6.77-3.81-10.24-10.63-10.57a21.18,21.18,0,0,0-2.39,0c-1.14.07-2,0-1.9-1.56,0-1.4.51-1.72,1.82-1.72q27,.06,54,0c1.45,0,1.66.58,1.7,1.84,0,1.46-.73,1.46-1.77,1.44a29.06,29.06,0,0,0-6.65.42c-4.23.88-6.95,3.56-7.53,7.85a57,57,0,0,0-.45,7.61q0,43.67,0,87.32a64.32,64.32,0,0,0,.43,7.85c.51,4.07,2.29,6.24,6.28,6.61a98.22,98.22,0,0,0,21.68,0c10.1-1.31,15.82-8.09,19.87-16.68a100.37,100.37,0,0,0,6.31-18.95c.27-1.08.44-1.86,1.9-1.87s2,.41,1.89,2q-2,20.77-3.79,41.55c-.15,1.76-1.19,1.53-2.29,1.53Z" transform="translate(-2.13 -166.39)"/><path class="cls-1" d="M251.49,468.17c2.48-2.37,4.18-5.25,7.55-6.23a6.38,6.38,0,0,1,7.52,2.89c2,3.08,1.82,6.51,1.9,9.88.12,4.69,0,9.39,0,14.08,0,2.38-.18,5,3.2,5.44a.79.79,0,0,1,.67.87c0,.68-.59.66-1.05.66-3.82,0-7.64,0-11.47,0-.38,0-.86,0-1-.51s.39-.86.86-.91c3.53-.33,3.69-2.81,3.66-5.52-.06-5.25,0-10.5,0-15.75,0-2.69-.23-5.6-3.11-6.68s-5.16.63-7.13,2.66a3.81,3.81,0,0,0-1.34,2.88q.13,9.3.05,18.61c0,2.06.58,3.4,2.86,3.52.66,0,1.38.22,1.29,1.05s-.94.66-1.53.66c-3.58,0-7.17,0-10.75,0-.53,0-1.44.33-1.43-.72,0-.83.7-1,1.36-1,2.09,0,2.73-1.32,2.72-3.13,0-6.6.09-13.21-.11-19.8-.14-4.72-3.65-6.39-7.74-3.95-2.5,1.49-3.9,3.4-3.75,6.55.27,5.55.2,11.12.26,16.68,0,2.15.61,3.8,3.22,3.73.6,0,1.14.14,1.12.91s-.7.74-1.22.74q-5.74,0-11.47,0c-.45,0-1.07,0-1.08-.61a1,1,0,0,1,.91-1c3.15-.07,3.24-2.54,3.29-4.58q.24-9.42,0-18.85c-.06-3.1-.71-3.59-3.53-3.76-.42,0-.8,0-.91-.55a.87.87,0,0,1,.54-1.13c2.49-1.2,4.94-2.47,7.44-3.63.9-.42,1.58-.11,1.58,1a11.63,11.63,0,0,0-.09,1.66c.14,1-.67,2.57.54,3,.86.3,1.56-1.11,2.18-1.92a10.91,10.91,0,0,1,3.21-2.78c3.79-2.26,7.5-1.11,9.56,2.86C250.74,466.31,251,467.12,251.49,468.17Z" transform="translate(-2.13 -166.39)"/><path class="cls-1" d="M425.56,488.22c.05,3.21-3.74,7.12-6.5,6.91a2.89,2.89,0,0,1-2.72-1.93c-1-2.68-1.14-2.7-3.28-.7s-4.23,3.15-7.06,2.66c-4.15-.73-6.87-6.25-5.42-10.83a12.75,12.75,0,0,1,5.58-6.84,51.45,51.45,0,0,1,8-4.15,2.08,2.08,0,0,0,1.54-2.32c-.13-1.42-.05-2.88-.29-4.28a4.61,4.61,0,0,0-5.2-3.85c-2.21.16-3.41,1.77-3.44,4.58a9.12,9.12,0,0,1-.17,2.83c-.48,1.34-1.49,2.38-3.1,1.91-1.87-.55-2.22-2.19-2-3.83a8.73,8.73,0,0,1,6.89-7.61,14.55,14.55,0,0,1,6.88.06c3.72,1,5.7,3.83,5.79,8.26.12,6,0,12.09.12,18.13,0,1-.54,2.39.84,2.95s2-.7,2.81-1.36C424.94,488.67,425.13,488.54,425.56,488.22Zm-9.71-6.62v-4.77c0-1.36-.68-1.69-1.83-1.08a26.25,26.25,0,0,0-5.67,3.42,7.55,7.55,0,0,0-2.48,8.32c.9,3.09,3.31,4.16,6.19,2.75,2.53-1.23,4.35-2.84,3.81-6A14.32,14.32,0,0,1,415.85,481.6Z" transform="translate(-2.13 -166.39)"/><path class="cls-1" d="M365,476.2c.07,5.77-1,10.13-3.71,13.91-5.41,7.59-14.46,7.48-19.76-.14-4.73-6.78-4.28-18.34,1-24.76,5.93-7.26,15.93-6,20.27,2.5A18,18,0,0,1,365,476.2Zm-5.8,3.81c.12-5.16-.45-10.16-3.68-14.46-2.9-3.84-8.11-3.31-9.89,1.13-3.31,8.22-2.18,16.15,2.31,23.63a5.17,5.17,0,0,0,5.73,2.53c2.32-.5,3.7-2.12,4.55-4.37C359.22,485.7,359.09,482.86,359.16,480Z" transform="translate(-2.13 -166.39)"/><path class="cls-1" d="M215.17,482.85c1.11,2.43.16,4.2-.61,5.82-2.6,5.47-5.45,8.7-11.49,7.95-4.77-.6-7.8-4-9.1-8.12-2.27-7.16-2.51-14.51,1.61-21.35,2.28-3.78,7.35-6.23,11.07-5.5,6,1.18,8.26,5.79,9,9.82.1.54,0,1.12.18,1.65.42,1.68-.37,2.08-1.88,2.06-4.78,0-9.55,0-14.33,0-2.71,0-3,.41-2.59,3.11.5,3.39,1.34,6.58,3.63,9.33,3.63,4.38,9.86,4,12.69-1C213.93,485.56,214.42,484.4,215.17,482.85ZM203,473h5c.79,0,1.34-.15,1.47-1.13a7.65,7.65,0,0,0-4.6-7.35c-2.16-.73-5,.71-6.52,3.21a13,13,0,0,0-1.31,3.78c-.25,1,.14,1.51,1.21,1.49C199.84,473,201.42,473,203,473Z" transform="translate(-2.13 -166.39)"/><path class="cls-1" d="M452.67,466.23c0,1.27,0,2.54,0,3.81,0,.6.25,1.54-.53,1.63s-1.07-.9-1.11-1.57a10.64,10.64,0,0,0-1.22-3.57,5.93,5.93,0,0,0-5.64-3.71,4.46,4.46,0,0,0-4.39,2.71c-1.06,2.29.47,5.72,3.31,7.37,2.26,1.3,4.55,2.57,6.77,3.94a10.43,10.43,0,0,1,4,13.09c-2.23,4.8-7,6.74-12.33,5.19-1.42-.42-2.91-1.22-4.55-.31-.91.51-1.27-.16-1.27-1,0-3,0-6,0-9.06,0-.55,0-1.22.82-1.2s.75.72.82,1.24a10.87,10.87,0,0,0,3.82,6.89c2.38,2.07,5.85,2.14,7.71.17s1.56-5.51-.52-7.72c-2.47-2.65-5.88-4-8.71-6.11a10,10,0,0,1-.35-15.84c2.43-2,5.06-1.94,7.87-1.17,1.38.38,2.71,1.35,4.17-.11.7-.71,1.3-.1,1.32.83,0,1.51,0,3,0,4.54Z" transform="translate(-2.13 -166.39)"/><path class="cls-1" d="M162.13,484.09c2.25,1.55,1.72,3.69,2.65,5.24,1.35,2.24,2.74,4.16,5.46,4.85a4.61,4.61,0,0,0,5.14-1.48,5.23,5.23,0,0,0,.56-5.81c-1.23-2.6-3.83-3.67-6-5.22-1.35-1-2.69-1.95-4.12-2.77-5.13-2.9-4.65-11.6-1.1-14.85,2.38-2.18,5-3.07,8.26-2.06,1.51.47,3.14,1.72,4.83.05.81-.8,1.19.25,1.2.76.08,3,0,6,0,9.05,0,.41-.14.83-.63.89-.79.1-.9-.54-1-1.08a12,12,0,0,0-2-5,5.64,5.64,0,0,0-2.9-2.34c-2.65-.83-5.15-.08-6.32,1.91-1,1.7-.4,4.53,1.35,6.29,2,2,4.61,3,7,4.45,3.53,2.15,6.34,4.9,6.49,9.29.27,7.37-6.28,12.23-13.31,10-1.16-.37-2.39-.89-3.49-.54-2,.63-2.22-.21-2.17-1.87C162.19,490.77,162.13,487.69,162.13,484.09Z" transform="translate(-2.13 -166.39)"/><path class="cls-1" d="M323.51,474.81c0,5.56.16,11.13-.06,16.68-.15,3.81-1,7.51-3.65,10.56-2.47,2.87-5.63,3.68-9.21,3.18a4.07,4.07,0,0,1-3.31-2.75,2.86,2.86,0,0,1,.94-3.42,2.56,2.56,0,0,1,3.11.1,18.49,18.49,0,0,1,2.25,2.08c1.92,1.77,3.91,1,4.37-1.56a15.15,15.15,0,0,0,.2-2.61q0-16.44,0-32.89c0-2.13.07-4.39-3.22-3.72a.66.66,0,0,1-.85-.61,1,1,0,0,1,.5-1q3.42-1.61,6.85-3.17c1.53-.7,2.17-.24,2.16,1.49-.06,5.88,0,11.76,0,17.64Z" transform="translate(-2.13 -166.39)"/><path class="cls-1" d="M385.73,476c0,4.28,0,8.57,0,12.85,0,2.11.39,4,3.06,4.24.5,0,1,.23.92.84s-.56.73-1,.74q-5.6,0-11.21,0c-.47,0-1-.06-1.07-.69-.11-.82.5-.92,1.06-.93,2.11,0,2.72-1.47,2.77-3.17.21-7.37.29-14.75-.07-22.13-.09-1.82-1-2.61-2.84-2-.53.17-.91.18-1.13-.41s0-.83.54-1.09c2.39-1.19,4.71-2.54,7.15-3.59,1.53-.66,1.86.44,1.86,1.77C385.7,467,385.72,471.48,385.73,476Z" transform="translate(-2.13 -166.39)"/><path class="cls-1" d="M291.45,476.81c0,4.29-.05,8.58,0,12.87,0,2.12.31,4.21,3.12,4.54.52.06,1.13.44,1,1.12s-.79.43-1.23.43c-3.58,0-7.16,0-10.74,0-.51,0-1.25.15-1.33-.62s.67-.87,1.18-.92c2.5-.24,2.8-2.22,2.83-4q.18-10.12,0-20.25c0-1.83-.51-3.84-3.28-3.06a.9.9,0,0,1-1.15-.6c-.24-.59.11-.82.6-1.06,2.4-1.16,4.76-2.42,7.19-3.52,1.68-.75,1.83.42,1.83,1.69q0,6.66,0,13.34Z" transform="translate(-2.13 -166.39)"/><path class="cls-1" d="M292,448c0,2-1.44,3.82-3.09,3.85s-3.34-1.89-3.35-3.65,1.58-3.77,3.17-3.84S292,446.05,292,448Z" transform="translate(-2.13 -166.39)"/><path class="cls-1" d="M383,443.31c1.89,0,3.07,1.45,3.06,3.73,0,1.94-1.45,3.71-3,3.67s-3.05-1.84-3-3.91C380.08,444.48,381.08,443.31,383,443.31Z" transform="translate(-2.13 -166.39)"/><path class="cls-1" d="M323.75,441.77c0,2.35-.93,3.53-2.81,3.58s-3.17-1.3-3.16-3.55c0-2,1.49-3.93,3-3.92S323.75,439.66,323.75,441.77Z" transform="translate(-2.13 -166.39)"/></svg>