<svg id="Camada_1" data-name="Camada 1" xmlns="http://www.w3.org/2000/svg" viewBox="0 0 607.7 333.17"><defs><style>.cls-1{fill:#e3b13c;}.cls-2{fill:#383637;}.cls-3{fill:#f6f6f5;}</style></defs><title>Logo LBS</title><path class="cls-1" d="M327.51,166.39a13.9,13.9,0,0,0,4.91.64c10.91.25,21.82.34,32.69,1.37,9.1.86,18.22,1.45,27.32,2.45,6.79.76,13.58,1.59,20.36,2.37,7.26.84,14.46,2.1,21.67,3.27q9.63,1.56,19.23,3.33c5,.92,10,1.94,14.91,3s9.73,2.27,14.57,3.48c6.68,1.67,13.38,3.23,20,5.14,9.34,2.7,18.69,5.45,27.89,8.59,10.85,3.7,21.57,7.8,32.09,12.4A333.85,333.85,0,0,1,605.2,234.3a54.64,54.64,0,0,1,4.63,3.28c-6.39-3.14-12.75-6.36-19.19-9.41-10.6-5-21.48-9.27-32.48-13.31-10-3.68-20.18-7-30.4-10-8.8-2.62-17.67-5-26.65-7-8-1.79-16-3.86-24.08-5.46-9.26-1.83-18.52-3.68-27.88-5.05-7.3-1.06-14.57-2.34-21.88-3.36-6.53-.91-13.09-1.64-19.65-2.35q-12.33-1.34-24.67-2.5c-4.67-.45-9.35-1.06-14-1.14-8.92-.14-17.81-.88-26.71-1.31-18.07-.86-36.14-.91-54.21-.59-17.34.31-34.67,1.22-52,2.54q-18.19,1.39-36.33,3.44c-8.84,1-17.66,2.16-26.45,3.55q-12.69,2-25.34,4.34c-8.58,1.59-17.12,3.34-25.64,5.17-7.12,1.52-14.13,3.51-21.21,5.22-8.55,2.07-17,4.55-25.37,7.15-7.25,2.25-14.42,4.73-21.57,7.31a377.65,377.65,0,0,0-35.26,14.56c-5.6,2.69-11.13,5.52-16.73,8.22,7.43-5.38,15.49-9.7,23.56-14a348,348,0,0,1,31.67-14.67c10-4.09,20.21-7.85,30.57-11,8-2.48,16-5.09,24.06-7.3,8.23-2.24,16.5-4.39,24.86-6.12,6.75-1.4,13.45-3.07,20.21-4.39,6.15-1.21,12.36-2.1,18.54-3.18,6.41-1.12,12.83-2.19,19.3-3,6.15-.75,12.26-1.85,18.42-2.48,11-1.13,22-2.06,33-3,11.35-1,22.74-1.13,34.12-1.39,4.21-.1,8.42-.42,12.63-.63Z" transform="translate(-2.13 -166.39)"/><path class="cls-2" d="M335,296a139.8,139.8,0,0,1,13.75,5.26c11.86,5.69,17.29,17.34,16.36,30.54-1.13,15.84-12.54,27.1-28.72,30.8a66.6,66.6,0,0,1-14.89,1.62q-26.65,0-53.31,0c-1.07,0-2.37.51-2.4-1.57s1.11-1.77,2.28-1.83c2.93-.17,5.89-.16,8.47-1.93,3-2.06,3.83-5.15,4-8.5.16-2.86.21-5.72.21-8.59q0-42.48,0-85a59.45,59.45,0,0,0-.49-9.52c-.68-4.24-3.12-6.9-7.34-7.69a35.61,35.61,0,0,0-5.45-.58c-1.18-.05-1.67-.28-1.67-1.6s.49-1.74,1.81-1.73c11.08,0,22.15,0,33.23,0,9.32.07,18.64-.33,28,.38,10.81.83,20.14,4.24,26.32,13.92,7.15,11.21,7,25.37-.77,34.79-4.47,5.44-10.7,8.07-17.09,10.41C336.66,295.43,336.05,295.61,335,296Zm-29.32,29.31c0,6.35,0,12.71,0,19.06a43.38,43.38,0,0,0,.27,5.47c.62,4.72,3.45,7.26,8.21,7.18,8.63-.14,15.22-4,18.94-11.78,5.25-11,4.66-22.21-.48-33.12-2.71-5.77-7.62-9-13.85-10.19a69.18,69.18,0,0,0-11.13-1c-1.6,0-2,.46-2,2C305.7,310.33,305.66,317.8,305.67,325.27Zm0-57.31c0,7.79,0,15.58,0,23.37,0,1.62.38,2.33,2.12,2.12,2.29-.28,4.61-.26,6.88-.6,8.29-1.24,14.31-5.53,17.18-13.55a34.34,34.34,0,0,0,.35-22c-2.18-7.1-7-11.79-14.47-13.4a77,77,0,0,0-9.94-1.14c-1.69-.13-2.14.43-2.12,2.1C305.71,252.54,305.67,260.25,305.67,268Z" transform="translate(-2.13 -166.39)"/><path class="cls-2" d="M447.15,342.79c0-7.16,0-14.32.05-21.48,0-.94-.89-2.52,1.25-2.68,1.92-.14,1.68,1.26,1.9,2.35,1.84,8.94,4.53,17.56,10,25,4.15,5.68,9.2,10.39,15.92,12.87,8.61,3.18,19.22,2.08,25-6.91,4.78-7.39,3.95-17.43-2.38-24.75-4.83-5.59-11.2-9.09-17.39-12.82-6.41-3.86-12.82-7.72-18.61-12.49-14.66-12.07-19.55-30-13-47.46,7.23-19.26,28.58-27.29,46.75-17.62a75.68,75.68,0,0,0,8.09,4.09c3.43,1.3,5.48.41,6.68-3.06a21.42,21.42,0,0,0,1-3.68c.16-1.06.54-1.5,1.67-1.47,1.34,0,1,1,1,1.68q.4,19.8.78,39.61c0,.91.11,1.76-1.29,1.67-1.07-.06-1.93.05-2.16-1.47a47.15,47.15,0,0,0-6.11-17.68c-5-8.12-11.4-14.53-21.25-16.34-7.61-1.4-14.6,1.67-18.33,7.85-3.82,6.33-3.25,13.93,1.45,20.07,4.48,5.84,10.79,9.33,16.9,13,8.49,5.17,17.18,10,24.53,16.86,18.76,17.35,17.18,47.76-3.47,62.7-10,7.24-21.21,7.89-32.79,4.44a61.54,61.54,0,0,1-9.62-4.16c-6-3-10.27-1.57-13.08,4.45-.61,1.29-1.27,1.95-2.67,1.66s-.83-1.54-.84-2.34C447.13,357.43,447.15,350.11,447.15,342.79Z" transform="translate(-2.13 -166.39)"/><path class="cls-1" d="M7.35,461.39c1.31-2.23,3.67-3.15,5.73-4.34A344.06,344.06,0,0,1,53.82,436.9q14.68-6,29.8-11c8.56-2.82,17.16-5.52,25.81-8,8.07-2.34,16.29-4.16,24.47-6.12,6.47-1.55,12.95-3.07,19.46-4.41,5.91-1.2,11.86-2.19,17.8-3.18,7.37-1.22,14.73-2.4,22.12-3.48,5.82-.85,11.65-1.58,17.5-2.23,8.21-.91,16.44-1.76,24.67-2.5,6.09-.56,12.21-1,18.32-1.34,11.83-.73,23.69-1.07,35.54-1.5q15.17-.56,30.32-.18c14.39.37,28.8.9,43.16,1.9Q381,396,399.11,398.18c10.34,1.23,20.67,2.56,30.95,4.13,8.23,1.26,16.42,2.79,24.61,4.37,6.77,1.31,13.53,2.69,20.25,4.22,8.27,1.88,16.46,4.1,24.69,6.19,7,1.78,13.85,3.94,20.73,6.09a444.14,444.14,0,0,1,44.4,16.56,372,372,0,0,1,33.84,17.07,86.18,86.18,0,0,1,10.78,7.26c-3.53-1.82-7-3.68-10.59-5.46-10.75-5.39-21.79-10.1-33-14.4q-16.38-6.29-33.19-11.32c-11.14-3.35-22.39-6.32-33.73-9-10.26-2.42-20.57-4.61-30.92-6.66-10.13-2-20.29-3.79-30.49-5.28-11.48-1.66-23-3-34.53-4.33-13-1.44-26-2.45-39-3.35-12.06-.85-24.17-1.19-36.27-1.42q-18.51-.35-37-.15c-9.63.11-19.27.35-28.89.85-12.94.68-25.9,1.34-38.8,2.61-9.79,1-19.6,2-29.37,3.28-8,1.06-16.05,2.18-24.08,3.3-6.52.9-13,2.2-19.46,3.41-7.17,1.33-14.35,2.65-21.49,4.16-6.2,1.3-12.36,2.82-18.52,4.32q-7.84,1.94-15.64,4.06c-5.94,1.63-11.88,3.3-17.78,5.09-9.07,2.75-18,5.87-26.92,9.16a361.34,361.34,0,0,0-39.11,17C9.53,460.49,8.43,460.92,7.35,461.39Z" transform="translate(-2.13 -166.39)"/><path class="cls-2" d="M137.11,364.18q-22.82,0-45.64,0c-1.34,0-2.3,0-2.12-1.86.11-1.16.47-1.48,1.56-1.46a23.15,23.15,0,0,0,6.63-.63,8.2,8.2,0,0,0,6.28-6.75,54.11,54.11,0,0,0,.72-10.93q0-42.46,0-84.93c0-2.7-.16-5.4-.29-8.11-.31-6.77-3.8-10.24-10.63-10.57a21,21,0,0,0-2.38,0c-1.15.07-2,0-1.9-1.56,0-1.39.51-1.72,1.82-1.72q27,.06,54,0c1.45,0,1.66.58,1.71,1.84,0,1.46-.73,1.46-1.77,1.44a29.19,29.19,0,0,0-6.66.42c-4.23.88-6.95,3.56-7.52,7.85a57,57,0,0,0-.45,7.61q0,43.66,0,87.32a64.33,64.33,0,0,0,.44,7.85c.51,4.07,2.29,6.24,6.28,6.61a98.22,98.22,0,0,0,21.68,0c10.09-1.31,15.82-8.09,19.86-16.68A100.4,100.4,0,0,0,185,321c.26-1.07.44-1.86,1.9-1.87s2,.41,1.88,2q-2,20.77-3.78,41.55c-.15,1.76-1.19,1.53-2.3,1.53Z" transform="translate(-2.13 -166.39)"/><path class="cls-1" d="M249.12,462.36c2.47-2.37,4.18-5.25,7.55-6.23a6.39,6.39,0,0,1,7.52,2.89c2,3.08,1.81,6.51,1.9,9.88.12,4.69,0,9.39,0,14.08,0,2.38-.17,5,3.21,5.44a.8.8,0,0,1,.67.87c0,.68-.6.66-1.05.66-3.83,0-7.65,0-11.47,0-.38,0-.87,0-1-.51s.39-.86.86-.91c3.53-.33,3.68-2.81,3.66-5.52-.06-5.25,0-10.5,0-15.75,0-2.69-.23-5.6-3.1-6.68s-5.17.63-7.13,2.67a3.82,3.82,0,0,0-1.35,2.87q.13,9.3.06,18.61c0,2.06.58,3.4,2.85,3.52.67,0,1.39.22,1.3,1.05s-.94.66-1.53.66c-3.59,0-7.17,0-10.76,0-.53,0-1.44.33-1.43-.72,0-.83.71-1,1.37-1,2.09,0,2.72-1.32,2.72-3.13,0-6.6.09-13.21-.11-19.8-.14-4.72-3.65-6.39-7.75-3.95-2.49,1.49-3.9,3.41-3.75,6.55.27,5.55.2,11.12.27,16.68,0,2.15.61,3.8,3.22,3.73.6,0,1.14.14,1.12.91s-.71.74-1.23.74q-5.73,0-11.47,0c-.44,0-1.06,0-1.07-.61a1,1,0,0,1,.9-1c3.16-.07,3.25-2.54,3.3-4.58.16-6.28.15-12.57,0-18.85-.07-3.1-.72-3.59-3.53-3.76-.42,0-.8,0-.92-.55a.88.88,0,0,1,.55-1.13c2.49-1.2,4.94-2.47,7.44-3.63.9-.42,1.58-.11,1.57,1a11.61,11.61,0,0,0-.08,1.66c.14,1-.68,2.57.53,3,.86.3,1.57-1.11,2.18-1.92a11.19,11.19,0,0,1,3.21-2.78c3.8-2.26,7.51-1.1,9.56,2.86C248.37,460.5,248.66,461.31,249.12,462.36Z" transform="translate(-2.13 -166.39)"/><path class="cls-1" d="M423.18,482.41c.06,3.21-3.73,7.12-6.49,6.92a2.91,2.91,0,0,1-2.72-1.94c-1-2.68-1.15-2.7-3.28-.7s-4.23,3.15-7.07,2.66c-4.15-.73-6.87-6.25-5.42-10.83a12.74,12.74,0,0,1,5.59-6.83,50.61,50.61,0,0,1,8-4.16,2.07,2.07,0,0,0,1.53-2.32c-.13-1.42,0-2.88-.29-4.28a4.59,4.59,0,0,0-5.19-3.85c-2.21.16-3.41,1.77-3.45,4.58a8.82,8.82,0,0,1-.17,2.83c-.48,1.34-1.49,2.39-3.09,1.91-1.88-.55-2.22-2.19-2-3.83A8.73,8.73,0,0,1,406,455a14.55,14.55,0,0,1,6.88.06c3.71,1,5.7,3.83,5.79,8.26.11,6,0,12.09.12,18.13,0,1-.55,2.39.84,2.95s2-.7,2.8-1.36Zm-9.71-6.62c0-1.59,0-3.18,0-4.77,0-1.36-.68-1.69-1.82-1.08a26.65,26.65,0,0,0-5.67,3.42,7.52,7.52,0,0,0-2.48,8.32c.9,3.09,3.3,4.16,6.19,2.75,2.53-1.23,4.34-2.84,3.8-6A16.35,16.35,0,0,1,413.47,475.79Z" transform="translate(-2.13 -166.39)"/><path class="cls-1" d="M362.58,470.4c.07,5.76-1,10.12-3.7,13.9-5.42,7.6-14.46,7.48-19.77-.14-4.72-6.78-4.27-18.34,1-24.76,5.94-7.26,15.94-6,20.28,2.5A17.87,17.87,0,0,1,362.58,470.4Zm-5.79,3.8c.11-5.16-.45-10.16-3.69-14.45-2.89-3.85-8.1-3.32-9.89,1.12C339.9,469.1,341,477,345.53,484.5a5.18,5.18,0,0,0,5.73,2.54c2.32-.51,3.7-2.13,4.54-4.38C356.84,479.89,356.72,477.05,356.79,474.2Z" transform="translate(-2.13 -166.39)"/><path class="cls-1" d="M212.79,477c1.12,2.43.16,4.2-.6,5.82-2.6,5.47-5.45,8.7-11.5,7.95-4.76-.6-7.79-4-9.09-8.12-2.27-7.16-2.52-14.51,1.6-21.35,2.28-3.78,7.36-6.23,11.07-5.5,6,1.18,8.27,5.79,9,9.82.1.54,0,1.12.18,1.65.42,1.68-.37,2.08-1.89,2.06-4.77,0-9.55,0-14.32,0-2.71,0-3,.41-2.59,3.11.5,3.39,1.34,6.58,3.62,9.33,3.63,4.38,9.87,4,12.69-1C211.56,479.75,212,478.59,212.79,477Zm-12.16-9.88c1.67,0,3.33,0,5,0,.78,0,1.33-.15,1.47-1.13a7.66,7.66,0,0,0-4.6-7.35c-2.16-.73-5,.71-6.53,3.21a13.22,13.22,0,0,0-1.31,3.79c-.24,1,.14,1.5,1.22,1.49C197.46,467.14,199.05,467.16,200.63,467.16Z" transform="translate(-2.13 -166.39)"/><path class="cls-1" d="M450.3,460.42c0,1.27,0,2.54,0,3.81,0,.6.25,1.54-.53,1.63s-1.07-.9-1.11-1.57a10.44,10.44,0,0,0-1.23-3.57,5.91,5.91,0,0,0-5.64-3.71,4.46,4.46,0,0,0-4.38,2.71c-1.07,2.29.46,5.72,3.31,7.37,2.26,1.3,4.54,2.57,6.77,3.94a10.41,10.41,0,0,1,4,13.09c-2.22,4.8-7,6.74-12.32,5.19-1.42-.42-2.92-1.22-4.55-.31-.91.51-1.28-.16-1.28-1,0-3,0-6,0-9.06,0-.55,0-1.22.82-1.2s.76.72.83,1.24a10.76,10.76,0,0,0,3.82,6.89c2.38,2.07,5.85,2.14,7.71.17s1.55-5.51-.52-7.72c-2.48-2.65-5.88-4-8.72-6.11a10,10,0,0,1-.34-15.84c2.43-2,5.06-1.94,7.86-1.17,1.39.38,2.72,1.35,4.17-.11.71-.71,1.31-.1,1.32.84,0,1.51,0,3,0,4.53Z" transform="translate(-2.13 -166.39)"/><path class="cls-1" d="M159.76,478.28c2.25,1.55,1.72,3.69,2.65,5.24,1.35,2.24,2.74,4.16,5.46,4.85a4.61,4.61,0,0,0,5.14-1.48,5.23,5.23,0,0,0,.56-5.81c-1.23-2.6-3.83-3.67-6-5.22a47.8,47.8,0,0,0-4.12-2.77c-5.12-2.9-4.64-11.6-1.09-14.85,2.37-2.18,5-3.07,8.25-2.06,1.52.48,3.15,1.72,4.84.05.8-.8,1.18.25,1.2.76.07,3,0,6,0,9.05,0,.41-.13.83-.62.89-.79.1-.9-.54-1-1.08a11.84,11.84,0,0,0-2-5,5.62,5.62,0,0,0-2.91-2.34c-2.65-.83-5.14-.07-6.32,1.91-1,1.7-.4,4.53,1.35,6.29,2,2,4.61,3,7,4.45,3.52,2.15,6.33,4.9,6.49,9.29.27,7.37-6.28,12.23-13.32,10-1.15-.37-2.38-.89-3.48-.54-2,.63-2.22-.21-2.18-1.87C159.82,485,159.76,481.88,159.76,478.28Z" transform="translate(-2.13 -166.39)"/><path class="cls-1" d="M321.13,469c0,5.56.17,11.13-.05,16.68-.15,3.81-1,7.51-3.65,10.56-2.47,2.87-5.63,3.68-9.22,3.18a4,4,0,0,1-3.3-2.75,2.84,2.84,0,0,1,.94-3.42,2.54,2.54,0,0,1,3.1.1,18.58,18.58,0,0,1,2.26,2.08c1.92,1.77,3.91,1,4.37-1.56a15.15,15.15,0,0,0,.2-2.61q0-16.44,0-32.89c0-2.13.07-4.39-3.23-3.72a.65.65,0,0,1-.84-.61.93.93,0,0,1,.5-1q3.42-1.6,6.85-3.17c1.53-.7,2.17-.24,2.15,1.49-.05,5.88,0,11.76,0,17.64Z" transform="translate(-2.13 -166.39)"/><path class="cls-1" d="M383.35,470.2c0,4.28,0,8.57,0,12.86,0,2.1.4,4,3.06,4.23.51,0,1,.23.93.84s-.56.73-1,.74c-3.74,0-7.47,0-11.21,0-.48,0-1-.06-1.07-.69-.11-.82.5-.92,1.06-.93,2.11,0,2.71-1.47,2.76-3.17.22-7.37.29-14.75-.06-22.13-.09-1.82-1-2.61-2.84-2-.54.17-.91.19-1.13-.41s0-.83.54-1.09c2.39-1.19,4.7-2.54,7.15-3.59,1.53-.66,1.86.44,1.85,1.77C383.33,461.15,383.35,465.67,383.35,470.2Z" transform="translate(-2.13 -166.39)"/><path class="cls-1" d="M289.08,471c0,4.29-.05,8.58,0,12.87,0,2.12.31,4.21,3.13,4.54.52.06,1.13.44,1,1.12s-.79.43-1.23.43c-3.58,0-7.16,0-10.74,0-.52,0-1.26.15-1.33-.62s.67-.87,1.17-.92c2.5-.24,2.81-2.22,2.84-4q.18-10.12,0-20.25c0-1.83-.52-3.84-3.29-3.06a.89.89,0,0,1-1.14-.59c-.24-.6.11-.83.59-1.07,2.4-1.16,4.76-2.42,7.19-3.52,1.69-.75,1.84.42,1.84,1.69,0,4.45,0,8.89,0,13.34Z" transform="translate(-2.13 -166.39)"/><path class="cls-1" d="M289.67,442.17c0,2-1.44,3.82-3.09,3.85s-3.34-1.89-3.35-3.65,1.57-3.77,3.16-3.84S289.65,440.24,289.67,442.17Z" transform="translate(-2.13 -166.39)"/><path class="cls-1" d="M380.64,437.5c1.88,0,3.07,1.45,3.06,3.73,0,1.94-1.45,3.71-3,3.67s-3-1.84-3-3.91C377.71,438.67,378.71,437.5,380.64,437.5Z" transform="translate(-2.13 -166.39)"/><path class="cls-1" d="M321.38,436c0,2.35-.93,3.53-2.81,3.58s-3.17-1.29-3.16-3.55c0-2,1.48-3.93,3-3.92S321.38,433.85,321.38,436Z" transform="translate(-2.13 -166.39)"/><path class="cls-3" d="M305.66,325.27c0-7.47,0-14.94,0-22.4,0-1.55.41-2.05,2-2a69.18,69.18,0,0,1,11.13,1c6.23,1.21,11.14,4.42,13.85,10.19,5.14,10.91,5.73,22.1.48,33.12-3.72,7.78-10.31,11.64-18.94,11.78-4.76.08-7.59-2.46-8.21-7.18a43.38,43.38,0,0,1-.27-5.47C305.65,338,305.67,331.62,305.66,325.27Z" transform="translate(-2.13 -166.39)"/><path class="cls-3" d="M305.67,268c0-7.71,0-15.42,0-23.13,0-1.67.43-2.23,2.12-2.1a77,77,0,0,1,9.94,1.14c7.46,1.61,12.29,6.3,14.47,13.4a34.34,34.34,0,0,1-.35,22c-2.87,8-8.89,12.31-17.18,13.55-2.27.34-4.59.32-6.88.6-1.74.21-2.13-.5-2.12-2.12C305.7,283.54,305.67,275.75,305.67,268Z" transform="translate(-2.13 -166.39)"/><path class="cls-3" d="M413.47,475.79a16.35,16.35,0,0,0,0,2.62c.54,3.18-1.27,4.79-3.8,6-2.89,1.41-5.29.34-6.19-2.75a7.52,7.52,0,0,1,2.48-8.32,26.65,26.65,0,0,1,5.67-3.42c1.14-.61,1.82-.28,1.82,1.08C413.48,472.61,413.47,474.2,413.47,475.79Z" transform="translate(-2.13 -166.39)"/><path class="cls-3" d="M356.79,474.2c-.07,2.85,0,5.69-1,8.46-.84,2.25-2.22,3.87-4.54,4.38a5.18,5.18,0,0,1-5.73-2.54c-4.49-7.48-5.63-15.4-2.32-23.63,1.79-4.44,7-5,9.89-1.12C356.34,464,356.9,469,356.79,474.2Z" transform="translate(-2.13 -166.39)"/><path class="cls-3" d="M200.63,467.16c-1.58,0-3.17,0-4.75,0-1.08,0-1.46-.52-1.22-1.49a13.22,13.22,0,0,1,1.31-3.79c1.53-2.5,4.37-3.94,6.53-3.21a7.66,7.66,0,0,1,4.6,7.35c-.14,1-.69,1.13-1.47,1.13C204,467.15,202.3,467.16,200.63,467.16Z" transform="translate(-2.13 -166.39)"/></svg>